{"glyphs":{"0":{"ha":694,"x_min":87,"x_max":608,"o":"m 174 998 l 174 1042 l 347 1042 l 521 1042 l 521 998 l 521 955 l 564 955 l 608 955 l 608 521 l 608 87 l 564 87 l 521 87 l 521 43 l 521 0 l 347 0 l 174 0 l 174 43 l 174 87 l 130 87 l 87 87 l 87 521 l 87 955 l 130 955 l 174 955 l 174 998 m 434 738 l 434 868 l 347 868 l 260 868 l 260 694 l 260 521 l 304 521 l 347 521 l 347 477 l 347 434 l 304 434 l 260 434 l 260 304 l 260 174 l 347 174 l 434 174 l 434 347 l 434 521 l 391 521 l 347 521 l 347 564 l 347 608 l 391 608 l 434 608 l 434 738 z "},"1":{"ha":694,"x_min":87,"x_max":608,"o":"m 260 955 l 260 1042 l 347 1042 l 434 1042 l 434 608 l 434 174 l 521 174 l 608 174 l 608 87 l 608 0 l 347 0 l 87 0 l 87 87 l 87 174 l 174 174 l 260 174 l 260 434 l 260 694 l 217 694 l 174 694 l 174 781 l 174 868 l 217 868 l 260 868 l 260 955 z "},"2":{"ha":694,"x_min":87,"x_max":608,"o":"m 174 998 l 174 1042 l 347 1042 l 521 1042 l 521 998 l 521 955 l 564 955 l 608 955 l 608 825 l 608 694 l 564 694 l 521 694 l 521 608 l 521 521 l 477 521 l 434 521 l 434 434 l 434 347 l 391 347 l 347 347 l 347 260 l 347 174 l 477 174 l 608 174 l 608 87 l 608 0 l 347 0 l 87 0 l 87 87 l 87 174 l 130 174 l 174 174 l 174 260 l 174 347 l 217 347 l 260 347 l 260 434 l 260 521 l 304 521 l 347 521 l 347 608 l 347 694 l 391 694 l 434 694 l 434 781 l 434 868 l 347 868 l 260 868 l 260 781 l 260 694 l 174 694 l 87 694 l 87 825 l 87 955 l 130 955 l 174 955 l 174 998 z "},"3":{"ha":694,"x_min":87,"x_max":608,"o":"m 87 955 l 87 1042 l 347 1042 l 608 1042 l 608 955 l 608 868 l 564 868 l 521 868 l 521 781 l 521 694 l 477 694 l 434 694 l 434 608 l 434 521 l 477 521 l 521 521 l 521 434 l 521 347 l 564 347 l 608 347 l 608 217 l 608 87 l 564 87 l 521 87 l 521 43 l 521 0 l 347 0 l 174 0 l 174 43 l 174 87 l 130 87 l 87 87 l 87 217 l 87 347 l 174 347 l 260 347 l 260 260 l 260 174 l 347 174 l 434 174 l 434 260 l 434 347 l 391 347 l 347 347 l 347 434 l 347 521 l 304 521 l 260 521 l 260 608 l 260 694 l 304 694 l 347 694 l 347 781 l 347 868 l 217 868 l 87 868 l 87 955 z "},"4":{"ha":694,"x_min":87,"x_max":608,"o":"m 347 955 l 347 1042 l 434 1042 l 521 1042 l 521 694 l 521 347 l 564 347 l 608 347 l 608 260 l 608 174 l 564 174 l 521 174 l 521 87 l 521 0 l 434 0 l 347 0 l 347 87 l 347 174 l 217 174 l 87 174 l 87 347 l 87 521 l 130 521 l 174 521 l 174 608 l 174 694 l 217 694 l 260 694 l 260 781 l 260 868 l 304 868 l 347 868 l 347 955 m 347 434 l 347 521 l 304 521 l 260 521 l 260 434 l 260 347 l 304 347 l 347 347 l 347 434 z "},"5":{"ha":694,"x_min":87,"x_max":608,"o":"m 87 781 l 87 1042 l 347 1042 l 608 1042 l 608 955 l 608 868 l 434 868 l 260 868 l 260 781 l 260 694 l 391 694 l 521 694 l 521 651 l 521 608 l 564 608 l 608 608 l 608 347 l 608 87 l 564 87 l 521 87 l 521 43 l 521 0 l 347 0 l 174 0 l 174 43 l 174 87 l 130 87 l 87 87 l 87 174 l 87 260 l 174 260 l 260 260 l 260 217 l 260 174 l 347 174 l 434 174 l 434 347 l 434 521 l 260 521 l 87 521 l 87 781 z "},"6":{"ha":694,"x_min":87,"x_max":608,"o":"m 260 998 l 260 1042 l 391 1042 l 521 1042 l 521 955 l 521 868 l 434 868 l 347 868 l 347 825 l 347 781 l 304 781 l 260 781 l 260 694 l 260 608 l 391 608 l 521 608 l 521 564 l 521 521 l 564 521 l 608 521 l 608 304 l 608 87 l 564 87 l 521 87 l 521 43 l 521 0 l 347 0 l 174 0 l 174 43 l 174 87 l 130 87 l 87 87 l 87 477 l 87 868 l 130 868 l 174 868 l 174 911 l 174 955 l 217 955 l 260 955 l 260 998 m 434 304 l 434 434 l 347 434 l 260 434 l 260 304 l 260 174 l 347 174 l 434 174 l 434 304 z "},"7":{"ha":694,"x_min":87,"x_max":608,"o":"m 87 955 l 87 1042 l 347 1042 l 608 1042 l 608 868 l 608 694 l 564 694 l 521 694 l 521 608 l 521 521 l 477 521 l 434 521 l 434 434 l 434 347 l 391 347 l 347 347 l 347 174 l 347 0 l 260 0 l 174 0 l 174 174 l 174 347 l 217 347 l 260 347 l 260 434 l 260 521 l 304 521 l 347 521 l 347 608 l 347 694 l 391 694 l 434 694 l 434 781 l 434 868 l 260 868 l 87 868 l 87 955 z "},"8":{"ha":694,"x_min":87,"x_max":608,"o":"m 174 998 l 174 1042 l 347 1042 l 521 1042 l 521 998 l 521 955 l 564 955 l 608 955 l 608 825 l 608 694 l 564 694 l 521 694 l 521 608 l 521 521 l 564 521 l 608 521 l 608 304 l 608 87 l 564 87 l 521 87 l 521 43 l 521 0 l 347 0 l 174 0 l 174 43 l 174 87 l 130 87 l 87 87 l 87 304 l 87 521 l 130 521 l 174 521 l 174 608 l 174 694 l 130 694 l 87 694 l 87 825 l 87 955 l 130 955 l 174 955 l 174 998 m 434 781 l 434 868 l 347 868 l 260 868 l 260 781 l 260 694 l 347 694 l 434 694 l 434 781 m 434 347 l 434 521 l 347 521 l 260 521 l 260 347 l 260 174 l 347 174 l 434 174 l 434 347 z "},"9":{"ha":694,"x_min":87,"x_max":608,"o":"m 174 998 l 174 1042 l 347 1042 l 521 1042 l 521 998 l 521 955 l 564 955 l 608 955 l 608 564 l 608 174 l 564 174 l 521 174 l 521 130 l 521 87 l 477 87 l 434 87 l 434 43 l 434 0 l 304 0 l 174 0 l 174 87 l 174 174 l 260 174 l 347 174 l 347 217 l 347 260 l 391 260 l 434 260 l 434 391 l 434 521 l 304 521 l 174 521 l 174 564 l 174 608 l 130 608 l 87 608 l 87 781 l 87 955 l 130 955 l 174 955 l 174 998 m 434 781 l 434 868 l 347 868 l 260 868 l 260 781 l 260 694 l 347 694 l 434 694 l 434 781 z "},"\u0000":{"ha":694,"x_min":0,"x_max":608,"o":"m 521 43 l 521 87 l 564 87 l 608 87 l 608 43 l 608 0 l 564 0 l 521 0 l 521 43 m 347 43 l 347 87 l 391 87 l 434 87 l 434 43 l 434 0 l 391 0 l 347 0 l 347 43 m 174 43 l 174 87 l 217 87 l 260 87 l 260 43 l 260 0 l 217 0 l 174 0 l 174 43 m 0 43 l 0 87 l 43 87 l 87 87 l 87 43 l 87 0 l 43 0 l 0 0 l 0 43 m 521 217 l 521 260 l 564 260 l 608 260 l 608 217 l 608 174 l 564 174 l 521 174 l 521 217 m 0 217 l 0 260 l 43 260 l 87 260 l 87 217 l 87 174 l 43 174 l 0 174 l 0 217 m 521 391 l 521 434 l 564 434 l 608 434 l 608 391 l 608 347 l 564 347 l 521 347 l 521 391 m 0 391 l 0 434 l 43 434 l 87 434 l 87 391 l 87 347 l 43 347 l 0 347 l 0 391 m 521 564 l 521 608 l 564 608 l 608 608 l 608 564 l 608 521 l 564 521 l 521 521 l 521 564 m 0 564 l 0 608 l 43 608 l 87 608 l 87 564 l 87 521 l 43 521 l 0 521 l 0 564 m 521 738 l 521 781 l 564 781 l 608 781 l 608 738 l 608 694 l 564 694 l 521 694 l 521 738 m 0 738 l 0 781 l 43 781 l 87 781 l 87 738 l 87 694 l 43 694 l 0 694 l 0 738 m 521 911 l 521 955 l 564 955 l 608 955 l 608 911 l 608 868 l 564 868 l 521 868 l 521 911 m 347 911 l 347 955 l 391 955 l 434 955 l 434 911 l 434 868 l 391 868 l 347 868 l 347 911 m 174 911 l 174 955 l 217 955 l 260 955 l 260 911 l 260 868 l 217 868 l 174 868 l 174 911 m 0 911 l 0 955 l 43 955 l 87 955 l 87 911 l 87 868 l 43 868 l 0 868 l 0 911 z "},"\r":{"ha":694,"x_min":260,"x_max":694,"o":"m 260 217 l 260 608 l 477 608 l 694 608 l 694 521 l 694 434 l 564 434 l 434 434 l 434 130 l 434 -174 l 347 -174 l 260 -174 l 260 217 z "},"\u0001":{"ha":694,"x_min":0,"x_max":608,"o":"m 260 738 l 260 781 l 304 781 l 347 781 l 347 738 l 347 694 l 391 694 l 434 694 l 434 651 l 434 608 l 477 608 l 521 608 l 521 564 l 521 521 l 564 521 l 608 521 l 608 434 l 608 347 l 564 347 l 521 347 l 521 304 l 521 260 l 477 260 l 434 260 l 434 217 l 434 174 l 391 174 l 347 174 l 347 130 l 347 87 l 304 87 l 260 87 l 260 130 l 260 174 l 217 174 l 174 174 l 174 217 l 174 260 l 130 260 l 87 260 l 87 304 l 87 347 l 43 347 l 0 347 l 0 434 l 0 521 l 43 521 l 87 521 l 87 564 l 87 608 l 130 608 l 174 608 l 174 651 l 174 694 l 217 694 l 260 694 l 260 738 z "},"\u0002":{"ha":694,"x_min":0,"x_max":694,"o":"m 174 998 l 174 1042 l 217 1042 l 260 1042 l 260 998 l 260 955 l 304 955 l 347 955 l 347 998 l 347 1042 l 391 1042 l 434 1042 l 434 998 l 434 955 l 477 955 l 521 955 l 521 911 l 521 868 l 477 868 l 434 868 l 434 825 l 434 781 l 477 781 l 521 781 l 521 738 l 521 694 l 477 694 l 434 694 l 434 651 l 434 608 l 477 608 l 521 608 l 521 564 l 521 521 l 477 521 l 434 521 l 434 477 l 434 434 l 477 434 l 521 434 l 521 391 l 521 347 l 477 347 l 434 347 l 434 304 l 434 260 l 477 260 l 521 260 l 521 217 l 521 174 l 477 174 l 434 174 l 434 130 l 434 87 l 477 87 l 521 87 l 521 43 l 521 0 l 477 0 l 434 0 l 434 43 l 434 87 l 391 87 l 347 87 l 347 43 l 347 0 l 304 0 l 260 0 l 260 43 l 260 87 l 217 87 l 174 87 l 174 130 l 174 174 l 217 174 l 260 174 l 260 217 l 260 260 l 217 260 l 174 260 l 174 304 l 174 347 l 217 347 l 260 347 l 260 391 l 260 434 l 217 434 l 174 434 l 174 477 l 174 521 l 217 521 l 260 521 l 260 564 l 260 608 l 217 608 l 174 608 l 174 651 l 174 694 l 217 694 l 260 694 l 260 738 l 260 781 l 217 781 l 174 781 l 174 825 l 174 868 l 217 868 l 260 868 l 260 911 l 260 955 l 217 955 l 174 955 l 174 998 m 434 911 l 434 955 l 391 955 l 347 955 l 347 911 l 347 868 l 304 868 l 260 868 l 260 825 l 260 781 l 304 781 l 347 781 l 347 738 l 347 694 l 304 694 l 260 694 l 260 651 l 260 608 l 304 608 l 347 608 l 347 564 l 347 521 l 304 521 l 260 521 l 260 477 l 260 434 l 304 434 l 347 434 l 347 391 l 347 347 l 304 347 l 260 347 l 260 304 l 260 260 l 304 260 l 347 260 l 347 217 l 347 174 l 304 174 l 260 174 l 260 130 l 260 87 l 304 87 l 347 87 l 347 130 l 347 174 l 391 174 l 434 174 l 434 217 l 434 260 l 391 260 l 347 260 l 347 304 l 347 347 l 391 347 l 434 347 l 434 391 l 434 434 l 391 434 l 347 434 l 347 477 l 347 521 l 391 521 l 434 521 l 434 564 l 434 608 l 391 608 l 347 608 l 347 651 l 347 694 l 391 694 l 434 694 l 434 738 l 434 781 l 391 781 l 347 781 l 347 825 l 347 868 l 391 868 l 434 868 l 434 911 m 0 1172 l 0 1215 l 43 1215 l 87 1215 l 87 1172 l 87 1128 l 130 1128 l 174 1128 l 174 1172 l 174 1215 l 217 1215 l 260 1215 l 260 1172 l 260 1128 l 304 1128 l 347 1128 l 347 1172 l 347 1215 l 391 1215 l 434 1215 l 434 1172 l 434 1128 l 477 1128 l 521 1128 l 521 1172 l 521 1215 l 564 1215 l 608 1215 l 608 1172 l 608 1128 l 651 1128 l 694 1128 l 694 1085 l 694 1042 l 651 1042 l 608 1042 l 608 998 l 608 955 l 651 955 l 694 955 l 694 911 l 694 868 l 651 868 l 608 868 l 608 825 l 608 781 l 651 781 l 694 781 l 694 738 l 694 694 l 651 694 l 608 694 l 608 651 l 608 608 l 651 608 l 694 608 l 694 564 l 694 521 l 651 521 l 608 521 l 608 477 l 608 434 l 651 434 l 694 434 l 694 391 l 694 347 l 651 347 l 608 347 l 608 304 l 608 260 l 651 260 l 694 260 l 694 217 l 694 174 l 651 174 l 608 174 l 608 130 l 608 87 l 651 87 l 694 87 l 694 43 l 694 0 l 651 0 l 608 0 l 608 -43 l 608 -87 l 651 -87 l 694 -87 l 694 -130 l 694 -174 l 651 -174 l 608 -174 l 608 -130 l 608 -87 l 564 -87 l 521 -87 l 521 -130 l 521 -174 l 477 -174 l 434 -174 l 434 -130 l 434 -87 l 391 -87 l 347 -87 l 347 -130 l 347 -174 l 304 -174 l 260 -174 l 260 -130 l 260 -87 l 217 -87 l 174 -87 l 174 -130 l 174 -174 l 130 -174 l 87 -174 l 87 -130 l 87 -87 l 43 -87 l 0 -87 l 0 -43 l 0 0 l 43 0 l 87 0 l 87 43 l 87 87 l 43 87 l 0 87 l 0 130 l 0 174 l 43 174 l 87 174 l 87 217 l 87 260 l 43 260 l 0 260 l 0 304 l 0 347 l 43 347 l 87 347 l 87 391 l 87 434 l 43 434 l 0 434 l 0 477 l 0 521 l 43 521 l 87 521 l 87 564 l 87 608 l 43 608 l 0 608 l 0 651 l 0 694 l 43 694 l 87 694 l 87 738 l 87 781 l 43 781 l 0 781 l 0 825 l 0 868 l 43 868 l 87 868 l 87 911 l 87 955 l 43 955 l 0 955 l 0 998 l 0 1042 l 43 1042 l 87 1042 l 87 1085 l 87 1128 l 43 1128 l 0 1128 l 0 1172 m 260 1085 l 260 1128 l 217 1128 l 174 1128 l 174 1085 l 174 1042 l 130 1042 l 87 1042 l 87 998 l 87 955 l 130 955 l 174 955 l 174 911 l 174 868 l 130 868 l 87 868 l 87 825 l 87 781 l 130 781 l 174 781 l 174 738 l 174 694 l 130 694 l 87 694 l 87 651 l 87 608 l 130 608 l 174 608 l 174 564 l 174 521 l 130 521 l 87 521 l 87 477 l 87 434 l 130 434 l 174 434 l 174 391 l 174 347 l 130 347 l 87 347 l 87 304 l 87 260 l 130 260 l 174 260 l 174 217 l 174 174 l 130 174 l 87 174 l 87 130 l 87 87 l 130 87 l 174 87 l 174 43 l 174 0 l 130 0 l 87 0 l 87 -43 l 87 -87 l 130 -87 l 174 -87 l 174 -43 l 174 0 l 217 0 l 260 0 l 260 -43 l 260 -87 l 304 -87 l 347 -87 l 347 -43 l 347 0 l 391 0 l 434 0 l 434 -43 l 434 -87 l 477 -87 l 521 -87 l 521 -43 l 521 0 l 564 0 l 608 0 l 608 43 l 608 87 l 564 87 l 521 87 l 521 130 l 521 174 l 564 174 l 608 174 l 608 217 l 608 260 l 564 260 l 521 260 l 521 304 l 521 347 l 564 347 l 608 347 l 608 391 l 608 434 l 564 434 l 521 434 l 521 477 l 521 521 l 564 521 l 608 521 l 608 564 l 608 608 l 564 608 l 521 608 l 521 651 l 521 694 l 564 694 l 608 694 l 608 738 l 608 781 l 564 781 l 521 781 l 521 825 l 521 868 l 564 868 l 608 868 l 608 911 l 608 955 l 564 955 l 521 955 l 521 998 l 521 1042 l 564 1042 l 608 1042 l 608 1085 l 608 1128 l 564 1128 l 521 1128 l 521 1085 l 521 1042 l 477 1042 l 434 1042 l 434 1085 l 434 1128 l 391 1128 l 347 1128 l 347 1085 l 347 1042 l 304 1042 l 260 1042 l 260 1085 z "},"\u0003":{"ha":694,"x_min":87,"x_max":608,"o":"m 174 477 l 174 521 l 391 521 l 608 521 l 608 477 l 608 434 l 521 434 l 434 434 l 434 260 l 434 87 l 391 87 l 347 87 l 347 260 l 347 434 l 260 434 l 174 434 l 174 477 m 87 825 l 87 1042 l 130 1042 l 174 1042 l 174 955 l 174 868 l 260 868 l 347 868 l 347 955 l 347 1042 l 391 1042 l 434 1042 l 434 825 l 434 608 l 391 608 l 347 608 l 347 694 l 347 781 l 260 781 l 174 781 l 174 694 l 174 608 l 130 608 l 87 608 l 87 825 z "},"\u0004":{"ha":694,"x_min":87,"x_max":608,"o":"m 260 304 l 260 521 l 434 521 l 608 521 l 608 477 l 608 434 l 477 434 l 347 434 l 347 391 l 347 347 l 434 347 l 521 347 l 521 304 l 521 260 l 434 260 l 347 260 l 347 174 l 347 87 l 304 87 l 260 87 l 260 304 m 87 825 l 87 1042 l 260 1042 l 434 1042 l 434 998 l 434 955 l 304 955 l 174 955 l 174 911 l 174 868 l 260 868 l 347 868 l 347 825 l 347 781 l 260 781 l 174 781 l 174 694 l 174 608 l 130 608 l 87 608 l 87 825 z "},"\u0005":{"ha":694,"x_min":87,"x_max":608,"o":"m 260 304 l 260 521 l 391 521 l 521 521 l 521 477 l 521 434 l 564 434 l 608 434 l 608 391 l 608 347 l 564 347 l 521 347 l 521 260 l 521 174 l 564 174 l 608 174 l 608 130 l 608 87 l 564 87 l 521 87 l 521 130 l 521 174 l 477 174 l 434 174 l 434 217 l 434 260 l 391 260 l 347 260 l 347 174 l 347 87 l 304 87 l 260 87 l 260 304 m 521 391 l 521 434 l 434 434 l 347 434 l 347 391 l 347 347 l 434 347 l 521 347 l 521 391 m 174 998 l 174 1042 l 304 1042 l 434 1042 l 434 998 l 434 955 l 304 955 l 174 955 l 174 825 l 174 694 l 304 694 l 434 694 l 434 651 l 434 608 l 304 608 l 174 608 l 174 651 l 174 694 l 130 694 l 87 694 l 87 825 l 87 955 l 130 955 l 174 955 l 174 998 z "},"\u0006":{"ha":694,"x_min":87,"x_max":608,"o":"m 260 304 l 260 521 l 434 521 l 608 521 l 608 477 l 608 434 l 477 434 l 347 434 l 347 391 l 347 347 l 434 347 l 521 347 l 521 304 l 521 260 l 434 260 l 347 260 l 347 174 l 347 87 l 304 87 l 260 87 l 260 304 m 87 825 l 87 1042 l 130 1042 l 174 1042 l 174 868 l 174 694 l 304 694 l 434 694 l 434 651 l 434 608 l 260 608 l 87 608 l 87 825 z "},"\u0007":{"ha":694,"x_min":87,"x_max":521,"o":"m 174 1085 l 174 1128 l 304 1128 l 434 1128 l 434 1085 l 434 1042 l 477 1042 l 521 1042 l 521 911 l 521 781 l 477 781 l 434 781 l 434 738 l 434 694 l 304 694 l 174 694 l 174 738 l 174 781 l 130 781 l 87 781 l 87 911 l 87 1042 l 130 1042 l 174 1042 l 174 1085 m 347 998 l 347 1042 l 304 1042 l 260 1042 l 260 998 l 260 955 l 217 955 l 174 955 l 174 911 l 174 868 l 217 868 l 260 868 l 260 825 l 260 781 l 304 781 l 347 781 l 347 825 l 347 868 l 391 868 l 434 868 l 434 911 l 434 955 l 391 955 l 347 955 l 347 998 z "},"\b":{"ha":694,"x_min":87,"x_max":608,"o":"m 87 87 l 87 174 l 347 174 l 608 174 l 608 87 l 608 0 l 347 0 l 87 0 l 87 87 m 260 825 l 260 955 l 347 955 l 434 955 l 434 825 l 434 694 l 521 694 l 608 694 l 608 608 l 608 521 l 521 521 l 434 521 l 434 391 l 434 260 l 347 260 l 260 260 l 260 391 l 260 521 l 174 521 l 87 521 l 87 608 l 87 694 l 174 694 l 260 694 l 260 825 z "},"\t":{"ha":694,"x_min":87,"x_max":608,"o":"m 260 304 l 260 521 l 304 521 l 347 521 l 347 347 l 347 174 l 477 174 l 608 174 l 608 130 l 608 87 l 434 87 l 260 87 l 260 304 m 87 825 l 87 1042 l 174 1042 l 260 1042 l 260 998 l 260 955 l 304 955 l 347 955 l 347 781 l 347 608 l 304 608 l 260 608 l 260 781 l 260 955 l 217 955 l 174 955 l 174 781 l 174 608 l 130 608 l 87 608 l 87 825 z "},"\n":{"ha":694,"x_min":87,"x_max":608,"o":"m 174 477 l 174 521 l 391 521 l 608 521 l 608 477 l 608 434 l 521 434 l 434 434 l 434 260 l 434 87 l 391 87 l 347 87 l 347 260 l 347 434 l 260 434 l 174 434 l 174 477 m 87 955 l 87 1042 l 130 1042 l 174 1042 l 174 955 l 174 868 l 217 868 l 260 868 l 260 781 l 260 694 l 304 694 l 347 694 l 347 781 l 347 868 l 391 868 l 434 868 l 434 955 l 434 1042 l 477 1042 l 521 1042 l 521 955 l 521 868 l 477 868 l 434 868 l 434 781 l 434 694 l 391 694 l 347 694 l 347 651 l 347 608 l 304 608 l 260 608 l 260 651 l 260 694 l 217 694 l 174 694 l 174 781 l 174 868 l 130 868 l 87 868 l 87 955 z "},"\u000b":{"ha":694,"x_min":0,"x_max":434,"o":"m 260 911 l 260 1215 l 347 1215 l 434 1215 l 434 825 l 434 434 l 217 434 l 0 434 l 0 521 l 0 608 l 130 608 l 260 608 l 260 911 z "},"\f":{"ha":694,"x_min":0,"x_max":434,"o":"m 0 521 l 0 608 l 217 608 l 434 608 l 434 217 l 434 -174 l 347 -174 l 260 -174 l 260 130 l 260 434 l 130 434 l 0 434 l 0 521 z "},"\u000e":{"ha":694,"x_min":260,"x_max":694,"o":"m 260 825 l 260 1215 l 347 1215 l 434 1215 l 434 911 l 434 608 l 564 608 l 694 608 l 694 521 l 694 434 l 477 434 l 260 434 l 260 825 z "},"\u000f":{"ha":694,"x_min":0,"x_max":694,"o":"m 260 911 l 260 1215 l 347 1215 l 434 1215 l 434 911 l 434 608 l 564 608 l 694 608 l 694 521 l 694 434 l 564 434 l 434 434 l 434 130 l 434 -174 l 347 -174 l 260 -174 l 260 130 l 260 434 l 130 434 l 0 434 l 0 521 l 0 608 l 130 608 l 260 608 l 260 911 z "},"\u0010":{"ha":694,"x_min":0,"x_max":694,"o":"m 0 1042 l 0 1128 l 347 1128 l 694 1128 l 694 1042 l 694 955 l 347 955 l 0 955 l 0 1042 z "},"\u0011":{"ha":694,"x_min":0,"x_max":694,"o":"m 0 781 l 0 868 l 347 868 l 694 868 l 694 781 l 694 694 l 347 694 l 0 694 l 0 781 z "},"\u0012":{"ha":694,"x_min":0,"x_max":694,"o":"m 0 521 l 0 608 l 347 608 l 694 608 l 694 521 l 694 434 l 347 434 l 0 434 l 0 521 z "},"\u0013":{"ha":694,"x_min":0,"x_max":694,"o":"m 0 260 l 0 347 l 347 347 l 694 347 l 694 260 l 694 174 l 347 174 l 0 174 l 0 260 z "},"\u0014":{"ha":694,"x_min":0,"x_max":694,"o":"m 0 0 l 0 87 l 347 87 l 694 87 l 694 0 l 694 -87 l 347 -87 l 0 -87 l 0 0 z "},"\u0015":{"ha":694,"x_min":260,"x_max":694,"o":"m 260 521 l 260 1215 l 347 1215 l 434 1215 l 434 911 l 434 608 l 564 608 l 694 608 l 694 521 l 694 434 l 564 434 l 434 434 l 434 130 l 434 -174 l 347 -174 l 260 -174 l 260 521 z "},"\u0016":{"ha":694,"x_min":0,"x_max":434,"o":"m 260 911 l 260 1215 l 347 1215 l 434 1215 l 434 521 l 434 -174 l 347 -174 l 260 -174 l 260 130 l 260 434 l 130 434 l 0 434 l 0 521 l 0 608 l 130 608 l 260 608 l 260 911 z "},"\u0017":{"ha":694,"x_min":0,"x_max":694,"o":"m 260 911 l 260 1215 l 347 1215 l 434 1215 l 434 911 l 434 608 l 564 608 l 694 608 l 694 521 l 694 434 l 347 434 l 0 434 l 0 521 l 0 608 l 130 608 l 260 608 l 260 911 z "},"\u0018":{"ha":694,"x_min":0,"x_max":694,"o":"m 0 521 l 0 608 l 347 608 l 694 608 l 694 521 l 694 434 l 564 434 l 434 434 l 434 130 l 434 -174 l 347 -174 l 260 -174 l 260 130 l 260 434 l 130 434 l 0 434 l 0 521 z "},"\u0019":{"ha":694,"x_min":260,"x_max":434,"o":"m 260 521 l 260 1215 l 347 1215 l 434 1215 l 434 521 l 434 -174 l 347 -174 l 260 -174 l 260 521 z "},"\u001a":{"ha":694,"x_min":0,"x_max":608,"o":"m 0 87 l 0 174 l 304 174 l 608 174 l 608 87 l 608 0 l 304 0 l 0 0 l 0 87 m 347 998 l 347 1042 l 477 1042 l 608 1042 l 608 998 l 608 955 l 564 955 l 521 955 l 521 911 l 521 868 l 477 868 l 434 868 l 434 825 l 434 781 l 391 781 l 347 781 l 347 738 l 347 694 l 304 694 l 260 694 l 260 651 l 260 608 l 304 608 l 347 608 l 347 564 l 347 521 l 391 521 l 434 521 l 434 477 l 434 434 l 477 434 l 521 434 l 521 391 l 521 347 l 564 347 l 608 347 l 608 304 l 608 260 l 477 260 l 347 260 l 347 304 l 347 347 l 304 347 l 260 347 l 260 391 l 260 434 l 217 434 l 174 434 l 174 477 l 174 521 l 130 521 l 87 521 l 87 564 l 87 608 l 43 608 l 0 608 l 0 651 l 0 694 l 43 694 l 87 694 l 87 738 l 87 781 l 130 781 l 174 781 l 174 825 l 174 868 l 217 868 l 260 868 l 260 911 l 260 955 l 304 955 l 347 955 l 347 998 z "},"\u001b":{"ha":694,"x_min":0,"x_max":694,"o":"m 0 87 l 0 174 l 347 174 l 694 174 l 694 87 l 694 0 l 347 0 l 0 0 l 0 87 m 0 998 l 0 1042 l 130 1042 l 260 1042 l 260 998 l 260 955 l 304 955 l 347 955 l 347 911 l 347 868 l 391 868 l 434 868 l 434 825 l 434 781 l 477 781 l 521 781 l 521 738 l 521 694 l 564 694 l 608 694 l 608 651 l 608 608 l 564 608 l 521 608 l 521 564 l 521 521 l 477 521 l 434 521 l 434 477 l 434 434 l 391 434 l 347 434 l 347 391 l 347 347 l 304 347 l 260 347 l 260 304 l 260 260 l 130 260 l 0 260 l 0 304 l 0 347 l 43 347 l 87 347 l 87 391 l 87 434 l 130 434 l 174 434 l 174 477 l 174 521 l 217 521 l 260 521 l 260 564 l 260 608 l 304 608 l 347 608 l 347 651 l 347 694 l 304 694 l 260 694 l 260 738 l 260 781 l 217 781 l 174 781 l 174 825 l 174 868 l 130 868 l 87 868 l 87 911 l 87 955 l 43 955 l 0 955 l 0 998 z "},"\u001c":{"ha":694,"x_min":0,"x_max":608,"o":"m 0 694 l 0 781 l 304 781 l 608 781 l 608 694 l 608 608 l 564 608 l 521 608 l 521 304 l 521 0 l 434 0 l 347 0 l 347 304 l 347 608 l 304 608 l 260 608 l 260 304 l 260 0 l 174 0 l 87 0 l 87 304 l 87 608 l 43 608 l 0 608 l 0 694 z "},"\u001d":{"ha":694,"x_min":87,"x_max":608,"o":"m 87 434 l 87 521 l 347 521 l 608 521 l 608 434 l 608 347 l 477 347 l 347 347 l 347 304 l 347 260 l 304 260 l 260 260 l 260 174 l 260 87 l 174 87 l 87 87 l 87 174 l 87 260 l 130 260 l 174 260 l 174 304 l 174 347 l 130 347 l 87 347 l 87 434 m 434 1042 l 434 1128 l 521 1128 l 608 1128 l 608 1042 l 608 955 l 564 955 l 521 955 l 521 911 l 521 868 l 564 868 l 608 868 l 608 781 l 608 694 l 347 694 l 87 694 l 87 781 l 87 868 l 217 868 l 347 868 l 347 911 l 347 955 l 391 955 l 434 955 l 434 1042 z "},"\u001e":{"ha":694,"x_min":0,"x_max":694,"o":"m 347 1085 l 347 1128 l 477 1128 l 608 1128 l 608 1042 l 608 955 l 521 955 l 434 955 l 434 911 l 434 868 l 391 868 l 347 868 l 347 694 l 347 521 l 477 521 l 608 521 l 608 477 l 608 434 l 477 434 l 347 434 l 347 304 l 347 174 l 521 174 l 694 174 l 694 87 l 694 0 l 347 0 l 0 0 l 0 43 l 0 87 l 43 87 l 87 87 l 87 130 l 87 174 l 130 174 l 174 174 l 174 304 l 174 434 l 87 434 l 0 434 l 0 477 l 0 521 l 87 521 l 174 521 l 174 738 l 174 955 l 217 955 l 260 955 l 260 998 l 260 1042 l 304 1042 l 347 1042 l 347 1085 z "},"\u001f":{"ha":694,"x_min":174,"x_max":521,"o":"m 260 564 l 260 608 l 347 608 l 434 608 l 434 564 l 434 521 l 477 521 l 521 521 l 521 434 l 521 347 l 477 347 l 434 347 l 434 304 l 434 260 l 347 260 l 260 260 l 260 304 l 260 347 l 217 347 l 174 347 l 174 434 l 174 521 l 217 521 l 260 521 l 260 564 z "}," ":{"ha":694,"x_min":0,"x_max":0,"o":""},"!":{"ha":694,"x_min":260,"x_max":434,"o":"m 260 87 l 260 174 l 347 174 l 434 174 l 434 87 l 434 0 l 347 0 l 260 0 l 260 87 m 260 694 l 260 1042 l 347 1042 l 434 1042 l 434 694 l 434 347 l 347 347 l 260 347 l 260 694 z "},"\"":{"ha":694,"x_min":87,"x_max":608,"o":"m 434 781 l 434 1042 l 521 1042 l 608 1042 l 608 781 l 608 521 l 521 521 l 434 521 l 434 781 m 87 781 l 87 1042 l 174 1042 l 260 1042 l 260 781 l 260 521 l 174 521 l 87 521 l 87 781 z "},"#":{"ha":694,"x_min":0,"x_max":694,"o":"m 87 955 l 87 1042 l 174 1042 l 260 1042 l 260 955 l 260 868 l 347 868 l 434 868 l 434 955 l 434 1042 l 521 1042 l 608 1042 l 608 955 l 608 868 l 651 868 l 694 868 l 694 781 l 694 694 l 651 694 l 608 694 l 608 608 l 608 521 l 651 521 l 694 521 l 694 434 l 694 347 l 651 347 l 608 347 l 608 260 l 608 174 l 521 174 l 434 174 l 434 260 l 434 347 l 347 347 l 260 347 l 260 260 l 260 174 l 174 174 l 87 174 l 87 260 l 87 347 l 43 347 l 0 347 l 0 434 l 0 521 l 43 521 l 87 521 l 87 608 l 87 694 l 43 694 l 0 694 l 0 781 l 0 868 l 43 868 l 87 868 l 87 955 m 434 608 l 434 694 l 347 694 l 260 694 l 260 608 l 260 521 l 347 521 l 434 521 l 434 608 z "},"$":{"ha":694,"x_min":87,"x_max":608,"o":"m 260 1128 l 260 1215 l 347 1215 l 434 1215 l 434 1128 l 434 1042 l 521 1042 l 608 1042 l 608 955 l 608 868 l 434 868 l 260 868 l 260 781 l 260 694 l 391 694 l 521 694 l 521 651 l 521 608 l 564 608 l 608 608 l 608 434 l 608 260 l 564 260 l 521 260 l 521 217 l 521 174 l 477 174 l 434 174 l 434 87 l 434 0 l 347 0 l 260 0 l 260 87 l 260 174 l 174 174 l 87 174 l 87 260 l 87 347 l 260 347 l 434 347 l 434 434 l 434 521 l 304 521 l 174 521 l 174 564 l 174 608 l 130 608 l 87 608 l 87 781 l 87 955 l 130 955 l 174 955 l 174 998 l 174 1042 l 217 1042 l 260 1042 l 260 1128 z "},"%":{"ha":694,"x_min":87,"x_max":608,"o":"m 434 304 l 434 434 l 521 434 l 608 434 l 608 304 l 608 174 l 521 174 l 434 174 l 434 304 m 434 955 l 434 1042 l 521 1042 l 608 1042 l 608 955 l 608 868 l 564 868 l 521 868 l 521 781 l 521 694 l 477 694 l 434 694 l 434 608 l 434 521 l 391 521 l 347 521 l 347 434 l 347 347 l 304 347 l 260 347 l 260 260 l 260 174 l 174 174 l 87 174 l 87 260 l 87 347 l 130 347 l 174 347 l 174 434 l 174 521 l 217 521 l 260 521 l 260 608 l 260 694 l 304 694 l 347 694 l 347 781 l 347 868 l 391 868 l 434 868 l 434 955 m 87 911 l 87 1042 l 174 1042 l 260 1042 l 260 911 l 260 781 l 174 781 l 87 781 l 87 911 z "},"&":{"ha":694,"x_min":0,"x_max":608,"o":"m 174 1172 l 174 1215 l 304 1215 l 434 1215 l 434 1172 l 434 1128 l 477 1128 l 521 1128 l 521 998 l 521 868 l 477 868 l 434 868 l 434 781 l 434 694 l 391 694 l 347 694 l 347 608 l 347 521 l 477 521 l 608 521 l 608 434 l 608 347 l 564 347 l 521 347 l 521 260 l 521 174 l 564 174 l 608 174 l 608 87 l 608 0 l 521 0 l 434 0 l 434 43 l 434 87 l 391 87 l 347 87 l 347 43 l 347 0 l 217 0 l 87 0 l 87 43 l 87 87 l 43 87 l 0 87 l 0 304 l 0 521 l 43 521 l 87 521 l 87 608 l 87 694 l 130 694 l 174 694 l 174 781 l 174 868 l 130 868 l 87 868 l 87 998 l 87 1128 l 130 1128 l 174 1128 l 174 1172 m 347 955 l 347 1042 l 304 1042 l 260 1042 l 260 955 l 260 868 l 304 868 l 347 868 l 347 955 m 260 434 l 260 521 l 217 521 l 174 521 l 174 347 l 174 174 l 260 174 l 347 174 l 347 260 l 347 347 l 304 347 l 260 347 l 260 434 z "},"'":{"ha":694,"x_min":260,"x_max":434,"o":"m 260 781 l 260 1042 l 347 1042 l 434 1042 l 434 781 l 434 521 l 347 521 l 260 521 l 260 781 z "},"(":{"ha":694,"x_min":260,"x_max":608,"o":"m 434 998 l 434 1042 l 521 1042 l 608 1042 l 608 998 l 608 955 l 564 955 l 521 955 l 521 868 l 521 781 l 477 781 l 434 781 l 434 521 l 434 260 l 477 260 l 521 260 l 521 174 l 521 87 l 564 87 l 608 87 l 608 43 l 608 0 l 521 0 l 434 0 l 434 43 l 434 87 l 391 87 l 347 87 l 347 130 l 347 174 l 304 174 l 260 174 l 260 521 l 260 868 l 304 868 l 347 868 l 347 911 l 347 955 l 391 955 l 434 955 l 434 998 z "},")":{"ha":694,"x_min":87,"x_max":434,"o":"m 87 998 l 87 1042 l 174 1042 l 260 1042 l 260 998 l 260 955 l 304 955 l 347 955 l 347 911 l 347 868 l 391 868 l 434 868 l 434 521 l 434 174 l 391 174 l 347 174 l 347 130 l 347 87 l 304 87 l 260 87 l 260 43 l 260 0 l 174 0 l 87 0 l 87 43 l 87 87 l 130 87 l 174 87 l 174 174 l 174 260 l 217 260 l 260 260 l 260 521 l 260 781 l 217 781 l 174 781 l 174 868 l 174 955 l 130 955 l 87 955 l 87 998 z "},"*":{"ha":694,"x_min":0,"x_max":694,"o":"m 87 955 l 87 1042 l 174 1042 l 260 1042 l 260 955 l 260 868 l 347 868 l 434 868 l 434 955 l 434 1042 l 521 1042 l 608 1042 l 608 955 l 608 868 l 564 868 l 521 868 l 521 781 l 521 694 l 608 694 l 694 694 l 694 608 l 694 521 l 608 521 l 521 521 l 521 434 l 521 347 l 564 347 l 608 347 l 608 260 l 608 174 l 521 174 l 434 174 l 434 260 l 434 347 l 347 347 l 260 347 l 260 260 l 260 174 l 174 174 l 87 174 l 87 260 l 87 347 l 130 347 l 174 347 l 174 434 l 174 521 l 87 521 l 0 521 l 0 608 l 0 694 l 87 694 l 174 694 l 174 781 l 174 868 l 130 868 l 87 868 l 87 955 z "},"+":{"ha":694,"x_min":87,"x_max":608,"o":"m 260 825 l 260 955 l 347 955 l 434 955 l 434 825 l 434 694 l 521 694 l 608 694 l 608 608 l 608 521 l 521 521 l 434 521 l 434 391 l 434 260 l 347 260 l 260 260 l 260 391 l 260 521 l 174 521 l 87 521 l 87 608 l 87 694 l 174 694 l 260 694 l 260 825 z "},",":{"ha":694,"x_min":174,"x_max":434,"o":"m 260 174 l 260 347 l 347 347 l 434 347 l 434 174 l 434 0 l 391 0 l 347 0 l 347 -43 l 347 -87 l 304 -87 l 260 -87 l 260 -130 l 260 -174 l 217 -174 l 174 -174 l 174 -87 l 174 0 l 217 0 l 260 0 l 260 174 z "},"-":{"ha":694,"x_min":87,"x_max":608,"o":"m 87 608 l 87 694 l 347 694 l 608 694 l 608 608 l 608 521 l 347 521 l 87 521 l 87 608 z "},".":{"ha":694,"x_min":260,"x_max":434,"o":"m 260 174 l 260 347 l 347 347 l 434 347 l 434 174 l 434 0 l 347 0 l 260 0 l 260 174 z "},"/":{"ha":694,"x_min":87,"x_max":608,"o":"m 434 911 l 434 1042 l 521 1042 l 608 1042 l 608 911 l 608 781 l 564 781 l 521 781 l 521 694 l 521 608 l 477 608 l 434 608 l 434 521 l 434 434 l 391 434 l 347 434 l 347 347 l 347 260 l 304 260 l 260 260 l 260 130 l 260 0 l 174 0 l 87 0 l 87 130 l 87 260 l 130 260 l 174 260 l 174 347 l 174 434 l 217 434 l 260 434 l 260 521 l 260 608 l 304 608 l 347 608 l 347 694 l 347 781 l 391 781 l 434 781 l 434 911 z "},":":{"ha":694,"x_min":260,"x_max":434,"o":"m 260 174 l 260 347 l 347 347 l 434 347 l 434 174 l 434 0 l 347 0 l 260 0 l 260 174 m 260 694 l 260 868 l 347 868 l 434 868 l 434 694 l 434 521 l 347 521 l 260 521 l 260 694 z "},";":{"ha":694,"x_min":174,"x_max":434,"o":"m 260 174 l 260 347 l 347 347 l 434 347 l 434 174 l 434 0 l 391 0 l 347 0 l 347 -43 l 347 -87 l 304 -87 l 260 -87 l 260 -130 l 260 -174 l 217 -174 l 174 -174 l 174 -87 l 174 0 l 217 0 l 260 0 l 260 174 m 260 694 l 260 868 l 347 868 l 434 868 l 434 694 l 434 521 l 347 521 l 260 521 l 260 694 z "},"<":{"ha":694,"x_min":0,"x_max":608,"o":"m 347 911 l 347 955 l 477 955 l 608 955 l 608 911 l 608 868 l 564 868 l 521 868 l 521 825 l 521 781 l 477 781 l 434 781 l 434 738 l 434 694 l 391 694 l 347 694 l 347 651 l 347 608 l 304 608 l 260 608 l 260 564 l 260 521 l 304 521 l 347 521 l 347 477 l 347 434 l 391 434 l 434 434 l 434 391 l 434 347 l 477 347 l 521 347 l 521 304 l 521 260 l 564 260 l 608 260 l 608 217 l 608 174 l 477 174 l 347 174 l 347 217 l 347 260 l 304 260 l 260 260 l 260 304 l 260 347 l 217 347 l 174 347 l 174 391 l 174 434 l 130 434 l 87 434 l 87 477 l 87 521 l 43 521 l 0 521 l 0 564 l 0 608 l 43 608 l 87 608 l 87 651 l 87 694 l 130 694 l 174 694 l 174 738 l 174 781 l 217 781 l 260 781 l 260 825 l 260 868 l 304 868 l 347 868 l 347 911 z "},"=":{"ha":694,"x_min":87,"x_max":608,"o":"m 87 434 l 87 521 l 347 521 l 608 521 l 608 434 l 608 347 l 347 347 l 87 347 l 87 434 m 87 781 l 87 868 l 347 868 l 608 868 l 608 781 l 608 694 l 347 694 l 87 694 l 87 781 z "},">":{"ha":694,"x_min":0,"x_max":608,"o":"m 0 911 l 0 955 l 130 955 l 260 955 l 260 911 l 260 868 l 304 868 l 347 868 l 347 825 l 347 781 l 391 781 l 434 781 l 434 738 l 434 694 l 477 694 l 521 694 l 521 651 l 521 608 l 564 608 l 608 608 l 608 564 l 608 521 l 564 521 l 521 521 l 521 477 l 521 434 l 477 434 l 434 434 l 434 391 l 434 347 l 391 347 l 347 347 l 347 304 l 347 260 l 304 260 l 260 260 l 260 217 l 260 174 l 130 174 l 0 174 l 0 217 l 0 260 l 43 260 l 87 260 l 87 304 l 87 347 l 130 347 l 174 347 l 174 391 l 174 434 l 217 434 l 260 434 l 260 477 l 260 521 l 304 521 l 347 521 l 347 564 l 347 608 l 304 608 l 260 608 l 260 651 l 260 694 l 217 694 l 174 694 l 174 738 l 174 781 l 130 781 l 87 781 l 87 825 l 87 868 l 43 868 l 0 868 l 0 911 z "},"?":{"ha":694,"x_min":87,"x_max":608,"o":"m 260 87 l 260 174 l 347 174 l 434 174 l 434 87 l 434 0 l 347 0 l 260 0 l 260 87 m 174 998 l 174 1042 l 347 1042 l 521 1042 l 521 998 l 521 955 l 564 955 l 608 955 l 608 825 l 608 694 l 564 694 l 521 694 l 521 608 l 521 521 l 477 521 l 434 521 l 434 391 l 434 260 l 347 260 l 260 260 l 260 391 l 260 521 l 304 521 l 347 521 l 347 608 l 347 694 l 391 694 l 434 694 l 434 781 l 434 868 l 347 868 l 260 868 l 260 781 l 260 694 l 174 694 l 87 694 l 87 825 l 87 955 l 130 955 l 174 955 l 174 998 z "},"@":{"ha":694,"x_min":0,"x_max":608,"o":"m 174 998 l 174 1042 l 304 1042 l 434 1042 l 434 998 l 434 955 l 477 955 l 521 955 l 521 911 l 521 868 l 564 868 l 608 868 l 608 651 l 608 434 l 564 434 l 521 434 l 521 391 l 521 347 l 391 347 l 260 347 l 260 521 l 260 694 l 347 694 l 434 694 l 434 651 l 434 608 l 477 608 l 521 608 l 521 694 l 521 781 l 477 781 l 434 781 l 434 825 l 434 868 l 347 868 l 260 868 l 260 825 l 260 781 l 217 781 l 174 781 l 174 521 l 174 260 l 217 260 l 260 260 l 260 217 l 260 174 l 391 174 l 521 174 l 521 217 l 521 260 l 564 260 l 608 260 l 608 174 l 608 87 l 564 87 l 521 87 l 521 43 l 521 0 l 347 0 l 174 0 l 174 43 l 174 87 l 130 87 l 87 87 l 87 130 l 87 174 l 43 174 l 0 174 l 0 521 l 0 868 l 43 868 l 87 868 l 87 911 l 87 955 l 130 955 l 174 955 l 174 998 m 434 521 l 434 608 l 391 608 l 347 608 l 347 521 l 347 434 l 391 434 l 434 434 l 434 521 z "},"A":{"ha":694,"x_min":87,"x_max":608,"o":"m 260 998 l 260 1042 l 347 1042 l 434 1042 l 434 998 l 434 955 l 477 955 l 521 955 l 521 911 l 521 868 l 564 868 l 608 868 l 608 434 l 608 0 l 521 0 l 434 0 l 434 174 l 434 347 l 347 347 l 260 347 l 260 174 l 260 0 l 174 0 l 87 0 l 87 434 l 87 868 l 130 868 l 174 868 l 174 911 l 174 955 l 217 955 l 260 955 l 260 998 m 434 651 l 434 781 l 347 781 l 260 781 l 260 651 l 260 521 l 347 521 l 434 521 l 434 651 z "},"B":{"ha":694,"x_min":87,"x_max":608,"o":"m 87 521 l 87 1042 l 304 1042 l 521 1042 l 521 998 l 521 955 l 564 955 l 608 955 l 608 781 l 608 608 l 564 608 l 521 608 l 521 564 l 521 521 l 564 521 l 608 521 l 608 304 l 608 87 l 564 87 l 521 87 l 521 43 l 521 0 l 304 0 l 87 0 l 87 521 m 434 781 l 434 868 l 347 868 l 260 868 l 260 781 l 260 694 l 347 694 l 434 694 l 434 781 m 434 347 l 434 521 l 347 521 l 260 521 l 260 347 l 260 174 l 347 174 l 434 174 l 434 347 z "},"C":{"ha":694,"x_min":87,"x_max":608,"o":"m 174 998 l 174 1042 l 347 1042 l 521 1042 l 521 998 l 521 955 l 564 955 l 608 955 l 608 825 l 608 694 l 521 694 l 434 694 l 434 781 l 434 868 l 347 868 l 260 868 l 260 521 l 260 174 l 347 174 l 434 174 l 434 260 l 434 347 l 521 347 l 608 347 l 608 217 l 608 87 l 564 87 l 521 87 l 521 43 l 521 0 l 347 0 l 174 0 l 174 43 l 174 87 l 130 87 l 87 87 l 87 521 l 87 955 l 130 955 l 174 955 l 174 998 z "},"D":{"ha":694,"x_min":87,"x_max":608,"o":"m 87 521 l 87 1042 l 260 1042 l 434 1042 l 434 998 l 434 955 l 477 955 l 521 955 l 521 911 l 521 868 l 564 868 l 608 868 l 608 521 l 608 174 l 564 174 l 521 174 l 521 130 l 521 87 l 477 87 l 434 87 l 434 43 l 434 0 l 260 0 l 87 0 l 87 521 m 347 825 l 347 868 l 304 868 l 260 868 l 260 521 l 260 174 l 304 174 l 347 174 l 347 217 l 347 260 l 391 260 l 434 260 l 434 521 l 434 781 l 391 781 l 347 781 l 347 825 z "},"E":{"ha":694,"x_min":87,"x_max":608,"o":"m 87 521 l 87 1042 l 347 1042 l 608 1042 l 608 955 l 608 868 l 434 868 l 260 868 l 260 781 l 260 694 l 391 694 l 521 694 l 521 608 l 521 521 l 391 521 l 260 521 l 260 347 l 260 174 l 434 174 l 608 174 l 608 87 l 608 0 l 347 0 l 87 0 l 87 521 z "},"F":{"ha":694,"x_min":87,"x_max":608,"o":"m 87 521 l 87 1042 l 347 1042 l 608 1042 l 608 955 l 608 868 l 434 868 l 260 868 l 260 781 l 260 694 l 391 694 l 521 694 l 521 608 l 521 521 l 391 521 l 260 521 l 260 260 l 260 0 l 174 0 l 87 0 l 87 521 z "},"G":{"ha":694,"x_min":87,"x_max":608,"o":"m 174 998 l 174 1042 l 391 1042 l 608 1042 l 608 955 l 608 868 l 434 868 l 260 868 l 260 521 l 260 174 l 347 174 l 434 174 l 434 347 l 434 521 l 391 521 l 347 521 l 347 608 l 347 694 l 477 694 l 608 694 l 608 391 l 608 87 l 564 87 l 521 87 l 521 43 l 521 0 l 347 0 l 174 0 l 174 43 l 174 87 l 130 87 l 87 87 l 87 521 l 87 955 l 130 955 l 174 955 l 174 998 z "},"H":{"ha":694,"x_min":87,"x_max":608,"o":"m 87 521 l 87 1042 l 174 1042 l 260 1042 l 260 868 l 260 694 l 347 694 l 434 694 l 434 868 l 434 1042 l 521 1042 l 608 1042 l 608 521 l 608 0 l 521 0 l 434 0 l 434 260 l 434 521 l 347 521 l 260 521 l 260 260 l 260 0 l 174 0 l 87 0 l 87 521 z "},"I":{"ha":694,"x_min":87,"x_max":608,"o":"m 87 955 l 87 1042 l 347 1042 l 608 1042 l 608 955 l 608 868 l 521 868 l 434 868 l 434 521 l 434 174 l 521 174 l 608 174 l 608 87 l 608 0 l 347 0 l 87 0 l 87 87 l 87 174 l 174 174 l 260 174 l 260 521 l 260 868 l 174 868 l 87 868 l 87 955 z "},"J":{"ha":694,"x_min":87,"x_max":608,"o":"m 434 608 l 434 1042 l 521 1042 l 608 1042 l 608 564 l 608 87 l 564 87 l 521 87 l 521 43 l 521 0 l 347 0 l 174 0 l 174 43 l 174 87 l 130 87 l 87 87 l 87 217 l 87 347 l 174 347 l 260 347 l 260 260 l 260 174 l 347 174 l 434 174 l 434 608 z "},"K":{"ha":694,"x_min":0,"x_max":608,"o":"m 0 521 l 0 1042 l 87 1042 l 174 1042 l 174 868 l 174 694 l 217 694 l 260 694 l 260 781 l 260 868 l 304 868 l 347 868 l 347 955 l 347 1042 l 434 1042 l 521 1042 l 521 955 l 521 868 l 477 868 l 434 868 l 434 781 l 434 694 l 391 694 l 347 694 l 347 608 l 347 521 l 391 521 l 434 521 l 434 434 l 434 347 l 477 347 l 521 347 l 521 260 l 521 174 l 564 174 l 608 174 l 608 87 l 608 0 l 521 0 l 434 0 l 434 87 l 434 174 l 391 174 l 347 174 l 347 260 l 347 347 l 304 347 l 260 347 l 260 434 l 260 521 l 217 521 l 174 521 l 174 260 l 174 0 l 87 0 l 0 0 l 0 521 z "},"L":{"ha":694,"x_min":87,"x_max":608,"o":"m 87 521 l 87 1042 l 174 1042 l 260 1042 l 260 608 l 260 174 l 434 174 l 608 174 l 608 87 l 608 0 l 347 0 l 87 0 l 87 521 z "},"M":{"ha":694,"x_min":0,"x_max":608,"o":"m 0 521 l 0 1042 l 87 1042 l 174 1042 l 174 955 l 174 868 l 217 868 l 260 868 l 260 781 l 260 694 l 304 694 l 347 694 l 347 781 l 347 868 l 391 868 l 434 868 l 434 955 l 434 1042 l 521 1042 l 608 1042 l 608 521 l 608 0 l 521 0 l 434 0 l 434 304 l 434 608 l 391 608 l 347 608 l 347 521 l 347 434 l 304 434 l 260 434 l 260 521 l 260 608 l 217 608 l 174 608 l 174 304 l 174 0 l 87 0 l 0 0 l 0 521 z "},"N":{"ha":694,"x_min":87,"x_max":608,"o":"m 87 521 l 87 1042 l 174 1042 l 260 1042 l 260 911 l 260 781 l 304 781 l 347 781 l 347 694 l 347 608 l 391 608 l 434 608 l 434 825 l 434 1042 l 521 1042 l 608 1042 l 608 521 l 608 0 l 521 0 l 434 0 l 434 130 l 434 260 l 391 260 l 347 260 l 347 347 l 347 434 l 304 434 l 260 434 l 260 217 l 260 0 l 174 0 l 87 0 l 87 521 z "},"O":{"ha":694,"x_min":87,"x_max":608,"o":"m 174 998 l 174 1042 l 347 1042 l 521 1042 l 521 998 l 521 955 l 564 955 l 608 955 l 608 521 l 608 87 l 564 87 l 521 87 l 521 43 l 521 0 l 347 0 l 174 0 l 174 43 l 174 87 l 130 87 l 87 87 l 87 521 l 87 955 l 130 955 l 174 955 l 174 998 m 434 521 l 434 868 l 347 868 l 260 868 l 260 521 l 260 174 l 347 174 l 434 174 l 434 521 z "},"P":{"ha":694,"x_min":87,"x_max":608,"o":"m 87 521 l 87 1042 l 304 1042 l 521 1042 l 521 998 l 521 955 l 564 955 l 608 955 l 608 694 l 608 434 l 564 434 l 521 434 l 521 391 l 521 347 l 391 347 l 260 347 l 260 174 l 260 0 l 174 0 l 87 0 l 87 521 m 434 694 l 434 868 l 347 868 l 260 868 l 260 694 l 260 521 l 347 521 l 434 521 l 434 694 z "},"Q":{"ha":694,"x_min":87,"x_max":608,"o":"m 174 998 l 174 1042 l 347 1042 l 521 1042 l 521 998 l 521 955 l 564 955 l 608 955 l 608 564 l 608 174 l 564 174 l 521 174 l 521 130 l 521 87 l 564 87 l 608 87 l 608 43 l 608 0 l 521 0 l 434 0 l 434 43 l 434 87 l 391 87 l 347 87 l 347 43 l 347 0 l 260 0 l 174 0 l 174 43 l 174 87 l 130 87 l 87 87 l 87 521 l 87 955 l 130 955 l 174 955 l 174 998 m 434 564 l 434 868 l 347 868 l 260 868 l 260 521 l 260 174 l 304 174 l 347 174 l 347 217 l 347 260 l 391 260 l 434 260 l 434 217 l 434 174 l 477 174 l 521 174 l 521 217 l 521 260 l 477 260 l 434 260 l 434 564 z "},"R":{"ha":694,"x_min":0,"x_max":608,"o":"m 0 521 l 0 1042 l 217 1042 l 434 1042 l 434 998 l 434 955 l 477 955 l 521 955 l 521 738 l 521 521 l 477 521 l 434 521 l 434 434 l 434 347 l 477 347 l 521 347 l 521 260 l 521 174 l 564 174 l 608 174 l 608 87 l 608 0 l 521 0 l 434 0 l 434 87 l 434 174 l 391 174 l 347 174 l 347 260 l 347 347 l 304 347 l 260 347 l 260 391 l 260 434 l 217 434 l 174 434 l 174 217 l 174 0 l 87 0 l 0 0 l 0 521 m 347 738 l 347 868 l 260 868 l 174 868 l 174 738 l 174 608 l 260 608 l 347 608 l 347 738 z "},"S":{"ha":694,"x_min":87,"x_max":608,"o":"m 174 998 l 174 1042 l 391 1042 l 608 1042 l 608 955 l 608 868 l 434 868 l 260 868 l 260 781 l 260 694 l 304 694 l 347 694 l 347 651 l 347 608 l 391 608 l 434 608 l 434 564 l 434 521 l 477 521 l 521 521 l 521 477 l 521 434 l 564 434 l 608 434 l 608 260 l 608 87 l 564 87 l 521 87 l 521 43 l 521 0 l 304 0 l 87 0 l 87 87 l 87 174 l 260 174 l 434 174 l 434 260 l 434 347 l 391 347 l 347 347 l 347 391 l 347 434 l 304 434 l 260 434 l 260 477 l 260 521 l 217 521 l 174 521 l 174 564 l 174 608 l 130 608 l 87 608 l 87 781 l 87 955 l 130 955 l 174 955 l 174 998 z "},"T":{"ha":694,"x_min":87,"x_max":608,"o":"m 87 955 l 87 1042 l 347 1042 l 608 1042 l 608 955 l 608 868 l 521 868 l 434 868 l 434 434 l 434 0 l 347 0 l 260 0 l 260 434 l 260 868 l 174 868 l 87 868 l 87 955 z "},"U":{"ha":694,"x_min":87,"x_max":608,"o":"m 87 564 l 87 1042 l 174 1042 l 260 1042 l 260 608 l 260 174 l 347 174 l 434 174 l 434 608 l 434 1042 l 521 1042 l 608 1042 l 608 564 l 608 87 l 564 87 l 521 87 l 521 43 l 521 0 l 347 0 l 174 0 l 174 43 l 174 87 l 130 87 l 87 87 l 87 564 z "},"V":{"ha":694,"x_min":87,"x_max":608,"o":"m 87 694 l 87 1042 l 174 1042 l 260 1042 l 260 694 l 260 347 l 347 347 l 434 347 l 434 694 l 434 1042 l 521 1042 l 608 1042 l 608 694 l 608 347 l 564 347 l 521 347 l 521 260 l 521 174 l 477 174 l 434 174 l 434 87 l 434 0 l 347 0 l 260 0 l 260 87 l 260 174 l 217 174 l 174 174 l 174 260 l 174 347 l 130 347 l 87 347 l 87 694 z "},"W":{"ha":694,"x_min":0,"x_max":608,"o":"m 0 521 l 0 1042 l 87 1042 l 174 1042 l 174 738 l 174 434 l 217 434 l 260 434 l 260 521 l 260 608 l 304 608 l 347 608 l 347 521 l 347 434 l 391 434 l 434 434 l 434 738 l 434 1042 l 521 1042 l 608 1042 l 608 521 l 608 0 l 564 0 l 521 0 l 521 43 l 521 87 l 477 87 l 434 87 l 434 130 l 434 174 l 391 174 l 347 174 l 347 217 l 347 260 l 304 260 l 260 260 l 260 217 l 260 174 l 217 174 l 174 174 l 174 130 l 174 87 l 130 87 l 87 87 l 87 43 l 87 0 l 43 0 l 0 0 l 0 521 z "},"X":{"ha":694,"x_min":87,"x_max":608,"o":"m 87 911 l 87 1042 l 174 1042 l 260 1042 l 260 911 l 260 781 l 347 781 l 434 781 l 434 911 l 434 1042 l 521 1042 l 608 1042 l 608 911 l 608 781 l 564 781 l 521 781 l 521 694 l 521 608 l 477 608 l 434 608 l 434 521 l 434 434 l 477 434 l 521 434 l 521 347 l 521 260 l 564 260 l 608 260 l 608 130 l 608 0 l 521 0 l 434 0 l 434 130 l 434 260 l 347 260 l 260 260 l 260 130 l 260 0 l 174 0 l 87 0 l 87 130 l 87 260 l 130 260 l 174 260 l 174 347 l 174 434 l 217 434 l 260 434 l 260 521 l 260 608 l 217 608 l 174 608 l 174 694 l 174 781 l 130 781 l 87 781 l 87 911 z "},"Y":{"ha":694,"x_min":87,"x_max":608,"o":"m 87 868 l 87 1042 l 174 1042 l 260 1042 l 260 868 l 260 694 l 347 694 l 434 694 l 434 868 l 434 1042 l 521 1042 l 608 1042 l 608 868 l 608 694 l 564 694 l 521 694 l 521 608 l 521 521 l 477 521 l 434 521 l 434 260 l 434 0 l 347 0 l 260 0 l 260 260 l 260 521 l 217 521 l 174 521 l 174 608 l 174 694 l 130 694 l 87 694 l 87 868 z "},"Z":{"ha":694,"x_min":87,"x_max":608,"o":"m 87 955 l 87 1042 l 347 1042 l 608 1042 l 608 955 l 608 868 l 564 868 l 521 868 l 521 781 l 521 694 l 477 694 l 434 694 l 434 608 l 434 521 l 391 521 l 347 521 l 347 434 l 347 347 l 304 347 l 260 347 l 260 260 l 260 174 l 434 174 l 608 174 l 608 87 l 608 0 l 347 0 l 87 0 l 87 174 l 87 347 l 130 347 l 174 347 l 174 434 l 174 521 l 217 521 l 260 521 l 260 608 l 260 694 l 304 694 l 347 694 l 347 781 l 347 868 l 217 868 l 87 868 l 87 955 z "},"[":{"ha":694,"x_min":260,"x_max":608,"o":"m 260 521 l 260 1042 l 434 1042 l 608 1042 l 608 955 l 608 868 l 521 868 l 434 868 l 434 521 l 434 174 l 521 174 l 608 174 l 608 87 l 608 0 l 434 0 l 260 0 l 260 521 z "},"\\":{"ha":694,"x_min":87,"x_max":608,"o":"m 87 911 l 87 1042 l 174 1042 l 260 1042 l 260 911 l 260 781 l 304 781 l 347 781 l 347 694 l 347 608 l 391 608 l 434 608 l 434 521 l 434 434 l 477 434 l 521 434 l 521 347 l 521 260 l 564 260 l 608 260 l 608 130 l 608 0 l 521 0 l 434 0 l 434 130 l 434 260 l 391 260 l 347 260 l 347 347 l 347 434 l 304 434 l 260 434 l 260 521 l 260 608 l 217 608 l 174 608 l 174 694 l 174 781 l 130 781 l 87 781 l 87 911 z "},"]":{"ha":694,"x_min":87,"x_max":434,"o":"m 87 955 l 87 1042 l 260 1042 l 434 1042 l 434 521 l 434 0 l 260 0 l 87 0 l 87 87 l 87 174 l 174 174 l 260 174 l 260 521 l 260 868 l 174 868 l 87 868 l 87 955 z "},"^":{"ha":694,"x_min":0,"x_max":608,"o":"m 260 1042 l 260 1128 l 304 1128 l 347 1128 l 347 1042 l 347 955 l 391 955 l 434 955 l 434 868 l 434 781 l 477 781 l 521 781 l 521 694 l 521 608 l 564 608 l 608 608 l 608 521 l 608 434 l 521 434 l 434 434 l 434 521 l 434 608 l 391 608 l 347 608 l 347 694 l 347 781 l 304 781 l 260 781 l 260 694 l 260 608 l 217 608 l 174 608 l 174 521 l 174 434 l 87 434 l 0 434 l 0 521 l 0 608 l 43 608 l 87 608 l 87 694 l 87 781 l 130 781 l 174 781 l 174 868 l 174 955 l 217 955 l 260 955 l 260 1042 z "},"_":{"ha":694,"x_min":0,"x_max":608,"o":"m 0 87 l 0 174 l 304 174 l 608 174 l 608 87 l 608 0 l 304 0 l 0 0 l 0 87 z "},"`":{"ha":694,"x_min":87,"x_max":521,"o":"m 87 1085 l 87 1215 l 130 1215 l 174 1215 l 174 1172 l 174 1128 l 217 1128 l 260 1128 l 260 1085 l 260 1042 l 304 1042 l 347 1042 l 347 998 l 347 955 l 391 955 l 434 955 l 434 911 l 434 868 l 477 868 l 521 868 l 521 738 l 521 608 l 477 608 l 434 608 l 434 651 l 434 694 l 391 694 l 347 694 l 347 738 l 347 781 l 304 781 l 260 781 l 260 825 l 260 868 l 217 868 l 174 868 l 174 911 l 174 955 l 130 955 l 87 955 l 87 1085 z "},"a":{"ha":694,"x_min":87,"x_max":608,"o":"m 174 694 l 174 781 l 347 781 l 521 781 l 521 738 l 521 694 l 564 694 l 608 694 l 608 347 l 608 0 l 391 0 l 174 0 l 174 43 l 174 87 l 130 87 l 87 87 l 87 260 l 87 434 l 130 434 l 174 434 l 174 477 l 174 521 l 304 521 l 434 521 l 434 564 l 434 608 l 304 608 l 174 608 l 174 694 m 434 260 l 434 347 l 347 347 l 260 347 l 260 260 l 260 174 l 347 174 l 434 174 l 434 260 z "},"b":{"ha":694,"x_min":87,"x_max":608,"o":"m 87 521 l 87 1042 l 174 1042 l 260 1042 l 260 911 l 260 781 l 391 781 l 521 781 l 521 738 l 521 694 l 564 694 l 608 694 l 608 391 l 608 87 l 564 87 l 521 87 l 521 43 l 521 0 l 304 0 l 87 0 l 87 521 m 434 391 l 434 608 l 347 608 l 260 608 l 260 391 l 260 174 l 347 174 l 434 174 l 434 391 z "},"c":{"ha":694,"x_min":87,"x_max":608,"o":"m 174 738 l 174 781 l 347 781 l 521 781 l 521 694 l 521 608 l 391 608 l 260 608 l 260 391 l 260 174 l 434 174 l 608 174 l 608 87 l 608 0 l 391 0 l 174 0 l 174 43 l 174 87 l 130 87 l 87 87 l 87 391 l 87 694 l 130 694 l 174 694 l 174 738 z "},"d":{"ha":694,"x_min":87,"x_max":608,"o":"m 434 911 l 434 1042 l 521 1042 l 608 1042 l 608 521 l 608 0 l 391 0 l 174 0 l 174 43 l 174 87 l 130 87 l 87 87 l 87 391 l 87 694 l 130 694 l 174 694 l 174 738 l 174 781 l 304 781 l 434 781 l 434 911 m 434 391 l 434 608 l 347 608 l 260 608 l 260 391 l 260 174 l 347 174 l 434 174 l 434 391 z "},"e":{"ha":694,"x_min":87,"x_max":608,"o":"m 174 738 l 174 781 l 347 781 l 521 781 l 521 738 l 521 694 l 564 694 l 608 694 l 608 521 l 608 347 l 434 347 l 260 347 l 260 260 l 260 174 l 434 174 l 608 174 l 608 87 l 608 0 l 391 0 l 174 0 l 174 43 l 174 87 l 130 87 l 87 87 l 87 391 l 87 694 l 130 694 l 174 694 l 174 738 m 434 521 l 434 608 l 347 608 l 260 608 l 260 521 l 260 434 l 347 434 l 434 434 l 434 521 z "},"f":{"ha":694,"x_min":87,"x_max":608,"o":"m 347 998 l 347 1042 l 477 1042 l 608 1042 l 608 955 l 608 868 l 521 868 l 434 868 l 434 781 l 434 694 l 521 694 l 608 694 l 608 608 l 608 521 l 521 521 l 434 521 l 434 260 l 434 0 l 347 0 l 260 0 l 260 260 l 260 521 l 174 521 l 87 521 l 87 608 l 87 694 l 174 694 l 260 694 l 260 825 l 260 955 l 304 955 l 347 955 l 347 998 z "},"g":{"ha":694,"x_min":87,"x_max":608,"o":"m 174 738 l 174 781 l 391 781 l 608 781 l 608 347 l 608 -87 l 564 -87 l 521 -87 l 521 -130 l 521 -174 l 304 -174 l 87 -174 l 87 -87 l 87 0 l 260 0 l 434 0 l 434 43 l 434 87 l 304 87 l 174 87 l 174 130 l 174 174 l 130 174 l 87 174 l 87 434 l 87 694 l 130 694 l 174 694 l 174 738 m 434 434 l 434 608 l 347 608 l 260 608 l 260 434 l 260 260 l 347 260 l 434 260 l 434 434 z "},"h":{"ha":694,"x_min":87,"x_max":608,"o":"m 87 521 l 87 1042 l 174 1042 l 260 1042 l 260 911 l 260 781 l 391 781 l 521 781 l 521 738 l 521 694 l 564 694 l 608 694 l 608 347 l 608 0 l 521 0 l 434 0 l 434 304 l 434 608 l 347 608 l 260 608 l 260 304 l 260 0 l 174 0 l 87 0 l 87 521 z "},"i":{"ha":694,"x_min":174,"x_max":521,"o":"m 174 694 l 174 781 l 304 781 l 434 781 l 434 477 l 434 174 l 477 174 l 521 174 l 521 87 l 521 0 l 347 0 l 174 0 l 174 87 l 174 174 l 217 174 l 260 174 l 260 391 l 260 608 l 217 608 l 174 608 l 174 694 m 260 955 l 260 1042 l 347 1042 l 434 1042 l 434 955 l 434 868 l 347 868 l 260 868 l 260 955 z "},"j":{"ha":694,"x_min":87,"x_max":521,"o":"m 347 391 l 347 781 l 434 781 l 521 781 l 521 347 l 521 -87 l 477 -87 l 434 -87 l 434 -130 l 434 -174 l 260 -174 l 87 -174 l 87 -87 l 87 0 l 217 0 l 347 0 l 347 391 m 347 955 l 347 1042 l 434 1042 l 521 1042 l 521 955 l 521 868 l 434 868 l 347 868 l 347 955 z "},"k":{"ha":694,"x_min":0,"x_max":608,"o":"m 0 521 l 0 1042 l 87 1042 l 174 1042 l 174 825 l 174 608 l 217 608 l 260 608 l 260 651 l 260 694 l 304 694 l 347 694 l 347 738 l 347 781 l 434 781 l 521 781 l 521 694 l 521 608 l 477 608 l 434 608 l 434 564 l 434 521 l 391 521 l 347 521 l 347 477 l 347 434 l 391 434 l 434 434 l 434 347 l 434 260 l 477 260 l 521 260 l 521 217 l 521 174 l 564 174 l 608 174 l 608 87 l 608 0 l 521 0 l 434 0 l 434 43 l 434 87 l 391 87 l 347 87 l 347 174 l 347 260 l 304 260 l 260 260 l 260 304 l 260 347 l 217 347 l 174 347 l 174 174 l 174 0 l 87 0 l 0 0 l 0 521 z "},"l":{"ha":694,"x_min":174,"x_max":521,"o":"m 174 955 l 174 1042 l 304 1042 l 434 1042 l 434 608 l 434 174 l 477 174 l 521 174 l 521 87 l 521 0 l 347 0 l 174 0 l 174 87 l 174 174 l 217 174 l 260 174 l 260 521 l 260 868 l 217 868 l 174 868 l 174 955 z "},"m":{"ha":694,"x_min":0,"x_max":608,"o":"m 87 738 l 87 781 l 174 781 l 260 781 l 260 738 l 260 694 l 304 694 l 347 694 l 347 738 l 347 781 l 434 781 l 521 781 l 521 738 l 521 694 l 564 694 l 608 694 l 608 347 l 608 0 l 521 0 l 434 0 l 434 260 l 434 521 l 391 521 l 347 521 l 347 391 l 347 260 l 304 260 l 260 260 l 260 391 l 260 521 l 217 521 l 174 521 l 174 260 l 174 0 l 87 0 l 0 0 l 0 347 l 0 694 l 43 694 l 87 694 l 87 738 z "},"n":{"ha":694,"x_min":87,"x_max":608,"o":"m 174 738 l 174 781 l 347 781 l 521 781 l 521 738 l 521 694 l 564 694 l 608 694 l 608 347 l 608 0 l 521 0 l 434 0 l 434 304 l 434 608 l 347 608 l 260 608 l 260 304 l 260 0 l 174 0 l 87 0 l 87 347 l 87 694 l 130 694 l 174 694 l 174 738 z "},"o":{"ha":694,"x_min":87,"x_max":608,"o":"m 174 738 l 174 781 l 347 781 l 521 781 l 521 738 l 521 694 l 564 694 l 608 694 l 608 391 l 608 87 l 564 87 l 521 87 l 521 43 l 521 0 l 347 0 l 174 0 l 174 43 l 174 87 l 130 87 l 87 87 l 87 391 l 87 694 l 130 694 l 174 694 l 174 738 m 434 391 l 434 608 l 347 608 l 260 608 l 260 391 l 260 174 l 347 174 l 434 174 l 434 391 z "},"p":{"ha":694,"x_min":87,"x_max":608,"o":"m 87 304 l 87 781 l 304 781 l 521 781 l 521 738 l 521 694 l 564 694 l 608 694 l 608 391 l 608 87 l 564 87 l 521 87 l 521 43 l 521 0 l 391 0 l 260 0 l 260 -87 l 260 -174 l 174 -174 l 87 -174 l 87 304 m 434 391 l 434 608 l 347 608 l 260 608 l 260 391 l 260 174 l 347 174 l 434 174 l 434 391 z "},"q":{"ha":694,"x_min":87,"x_max":608,"o":"m 174 738 l 174 781 l 391 781 l 608 781 l 608 304 l 608 -174 l 521 -174 l 434 -174 l 434 -87 l 434 0 l 304 0 l 174 0 l 174 43 l 174 87 l 130 87 l 87 87 l 87 391 l 87 694 l 130 694 l 174 694 l 174 738 m 434 391 l 434 608 l 347 608 l 260 608 l 260 391 l 260 174 l 347 174 l 434 174 l 434 391 z "},"r":{"ha":694,"x_min":87,"x_max":608,"o":"m 87 391 l 87 781 l 304 781 l 521 781 l 521 738 l 521 694 l 564 694 l 608 694 l 608 608 l 608 521 l 521 521 l 434 521 l 434 564 l 434 608 l 347 608 l 260 608 l 260 304 l 260 0 l 174 0 l 87 0 l 87 391 z "},"s":{"ha":694,"x_min":87,"x_max":608,"o":"m 174 738 l 174 781 l 391 781 l 608 781 l 608 694 l 608 608 l 434 608 l 260 608 l 260 564 l 260 521 l 304 521 l 347 521 l 347 477 l 347 434 l 434 434 l 521 434 l 521 391 l 521 347 l 564 347 l 608 347 l 608 217 l 608 87 l 564 87 l 521 87 l 521 43 l 521 0 l 304 0 l 87 0 l 87 87 l 87 174 l 260 174 l 434 174 l 434 217 l 434 260 l 391 260 l 347 260 l 347 304 l 347 347 l 260 347 l 174 347 l 174 391 l 174 434 l 130 434 l 87 434 l 87 564 l 87 694 l 130 694 l 174 694 l 174 738 z "},"t":{"ha":694,"x_min":87,"x_max":608,"o":"m 260 868 l 260 955 l 347 955 l 434 955 l 434 868 l 434 781 l 521 781 l 608 781 l 608 694 l 608 608 l 521 608 l 434 608 l 434 391 l 434 174 l 521 174 l 608 174 l 608 87 l 608 0 l 477 0 l 347 0 l 347 43 l 347 87 l 304 87 l 260 87 l 260 347 l 260 608 l 174 608 l 87 608 l 87 694 l 87 781 l 174 781 l 260 781 l 260 868 z "},"u":{"ha":694,"x_min":87,"x_max":608,"o":"m 87 434 l 87 781 l 174 781 l 260 781 l 260 477 l 260 174 l 347 174 l 434 174 l 434 477 l 434 781 l 521 781 l 608 781 l 608 391 l 608 0 l 391 0 l 174 0 l 174 43 l 174 87 l 130 87 l 87 87 l 87 434 z "},"v":{"ha":694,"x_min":87,"x_max":608,"o":"m 87 564 l 87 781 l 174 781 l 260 781 l 260 564 l 260 347 l 347 347 l 434 347 l 434 564 l 434 781 l 521 781 l 608 781 l 608 564 l 608 347 l 564 347 l 521 347 l 521 260 l 521 174 l 477 174 l 434 174 l 434 87 l 434 0 l 347 0 l 260 0 l 260 87 l 260 174 l 217 174 l 174 174 l 174 260 l 174 347 l 130 347 l 87 347 l 87 564 z "},"w":{"ha":694,"x_min":0,"x_max":608,"o":"m 0 391 l 0 781 l 87 781 l 174 781 l 174 608 l 174 434 l 217 434 l 260 434 l 260 521 l 260 608 l 304 608 l 347 608 l 347 521 l 347 434 l 391 434 l 434 434 l 434 608 l 434 781 l 521 781 l 608 781 l 608 391 l 608 0 l 564 0 l 521 0 l 521 43 l 521 87 l 477 87 l 434 87 l 434 130 l 434 174 l 391 174 l 347 174 l 347 217 l 347 260 l 304 260 l 260 260 l 260 217 l 260 174 l 217 174 l 174 174 l 174 130 l 174 87 l 130 87 l 87 87 l 87 43 l 87 0 l 43 0 l 0 0 l 0 391 z "},"x":{"ha":694,"x_min":87,"x_max":608,"o":"m 87 694 l 87 781 l 174 781 l 260 781 l 260 694 l 260 608 l 347 608 l 434 608 l 434 694 l 434 781 l 521 781 l 608 781 l 608 694 l 608 608 l 564 608 l 521 608 l 521 521 l 521 434 l 477 434 l 434 434 l 434 391 l 434 347 l 477 347 l 521 347 l 521 260 l 521 174 l 564 174 l 608 174 l 608 87 l 608 0 l 521 0 l 434 0 l 434 87 l 434 174 l 347 174 l 260 174 l 260 87 l 260 0 l 174 0 l 87 0 l 87 87 l 87 174 l 130 174 l 174 174 l 174 260 l 174 347 l 217 347 l 260 347 l 260 391 l 260 434 l 217 434 l 174 434 l 174 521 l 174 608 l 130 608 l 87 608 l 87 694 z "},"y":{"ha":694,"x_min":87,"x_max":608,"o":"m 87 477 l 87 781 l 174 781 l 260 781 l 260 521 l 260 260 l 347 260 l 434 260 l 434 521 l 434 781 l 521 781 l 608 781 l 608 347 l 608 -87 l 564 -87 l 521 -87 l 521 -130 l 521 -174 l 304 -174 l 87 -174 l 87 -87 l 87 0 l 260 0 l 434 0 l 434 43 l 434 87 l 304 87 l 174 87 l 174 130 l 174 174 l 130 174 l 87 174 l 87 477 z "},"z":{"ha":694,"x_min":87,"x_max":608,"o":"m 87 694 l 87 781 l 347 781 l 608 781 l 608 694 l 608 608 l 564 608 l 521 608 l 521 564 l 521 521 l 477 521 l 434 521 l 434 434 l 434 347 l 391 347 l 347 347 l 347 260 l 347 174 l 477 174 l 608 174 l 608 87 l 608 0 l 347 0 l 87 0 l 87 87 l 87 174 l 130 174 l 174 174 l 174 260 l 174 347 l 217 347 l 260 347 l 260 434 l 260 521 l 304 521 l 347 521 l 347 564 l 347 608 l 217 608 l 87 608 l 87 694 z "},"{":{"ha":694,"x_min":0,"x_max":608,"o":"m 347 1085 l 347 1128 l 477 1128 l 608 1128 l 608 1085 l 608 1042 l 521 1042 l 434 1042 l 434 825 l 434 608 l 391 608 l 347 608 l 347 521 l 347 434 l 391 434 l 434 434 l 434 217 l 434 0 l 521 0 l 608 0 l 608 -43 l 608 -87 l 477 -87 l 347 -87 l 347 -43 l 347 0 l 304 0 l 260 0 l 260 174 l 260 347 l 217 347 l 174 347 l 174 391 l 174 434 l 87 434 l 0 434 l 0 521 l 0 608 l 87 608 l 174 608 l 174 651 l 174 694 l 217 694 l 260 694 l 260 868 l 260 1042 l 304 1042 l 347 1042 l 347 1085 z "},"|":{"ha":694,"x_min":260,"x_max":434,"o":"m 260 521 l 260 1128 l 347 1128 l 434 1128 l 434 521 l 434 -87 l 347 -87 l 260 -87 l 260 521 z "},"}":{"ha":694,"x_min":0,"x_max":608,"o":"m 0 1085 l 0 1128 l 130 1128 l 260 1128 l 260 1085 l 260 1042 l 304 1042 l 347 1042 l 347 868 l 347 694 l 391 694 l 434 694 l 434 651 l 434 608 l 521 608 l 608 608 l 608 521 l 608 434 l 521 434 l 434 434 l 434 391 l 434 347 l 391 347 l 347 347 l 347 174 l 347 0 l 304 0 l 260 0 l 260 -43 l 260 -87 l 130 -87 l 0 -87 l 0 -43 l 0 0 l 87 0 l 174 0 l 174 217 l 174 434 l 217 434 l 260 434 l 260 521 l 260 608 l 217 608 l 174 608 l 174 825 l 174 1042 l 87 1042 l 0 1042 l 0 1085 z "},"~":{"ha":694,"x_min":0,"x_max":608,"o":"m 87 738 l 87 781 l 174 781 l 260 781 l 260 738 l 260 694 l 304 694 l 347 694 l 347 651 l 347 608 l 434 608 l 521 608 l 521 694 l 521 781 l 564 781 l 608 781 l 608 651 l 608 521 l 564 521 l 521 521 l 521 477 l 521 434 l 391 434 l 260 434 l 260 477 l 260 521 l 217 521 l 174 521 l 174 564 l 174 608 l 130 608 l 87 608 l 87 521 l 87 434 l 43 434 l 0 434 l 0 564 l 0 694 l 43 694 l 87 694 l 87 738 z "},"":{"ha":694,"x_min":0,"x_max":694,"o":"m 260 694 l 260 781 l 347 781 l 434 781 l 434 694 l 434 608 l 477 608 l 521 608 l 521 521 l 521 434 l 564 434 l 608 434 l 608 347 l 608 260 l 651 260 l 694 260 l 694 174 l 694 87 l 347 87 l 0 87 l 0 174 l 0 260 l 43 260 l 87 260 l 87 347 l 87 434 l 130 434 l 174 434 l 174 521 l 174 608 l 217 608 l 260 608 l 260 694 m 434 434 l 434 521 l 347 521 l 260 521 l 260 434 l 260 347 l 217 347 l 174 347 l 174 260 l 174 174 l 347 174 l 521 174 l 521 260 l 521 347 l 477 347 l 434 347 l 434 434 z "},"":{"ha":694,"x_min":0,"x_max":608,"o":"m 0 1042 l 0 1128 l 304 1128 l 608 1128 l 608 1042 l 608 955 l 304 955 l 0 955 l 0 1042 z "},"":{"ha":694,"x_min":0,"x_max":694,"o":"m 260 911 l 260 955 l 347 955 l 434 955 l 434 911 l 434 868 l 477 868 l 521 868 l 521 825 l 521 781 l 564 781 l 608 781 l 608 738 l 608 694 l 651 694 l 694 694 l 694 564 l 694 434 l 608 434 l 521 434 l 521 260 l 521 87 l 347 87 l 174 87 l 174 260 l 174 434 l 87 434 l 0 434 l 0 564 l 0 694 l 43 694 l 87 694 l 87 738 l 87 781 l 130 781 l 174 781 l 174 825 l 174 868 l 217 868 l 260 868 l 260 911 m 434 738 l 434 781 l 347 781 l 260 781 l 260 738 l 260 694 l 217 694 l 174 694 l 174 651 l 174 608 l 130 608 l 87 608 l 87 564 l 87 521 l 174 521 l 260 521 l 260 347 l 260 174 l 347 174 l 434 174 l 434 347 l 434 521 l 521 521 l 608 521 l 608 564 l 608 608 l 564 608 l 521 608 l 521 651 l 521 694 l 477 694 l 434 694 l 434 738 z "},"":{"ha":694,"x_min":0,"x_max":694,"o":"m 174 781 l 174 955 l 347 955 l 521 955 l 521 781 l 521 608 l 608 608 l 694 608 l 694 477 l 694 347 l 651 347 l 608 347 l 608 304 l 608 260 l 564 260 l 521 260 l 521 217 l 521 174 l 477 174 l 434 174 l 434 130 l 434 87 l 347 87 l 260 87 l 260 130 l 260 174 l 217 174 l 174 174 l 174 217 l 174 260 l 130 260 l 87 260 l 87 304 l 87 347 l 43 347 l 0 347 l 0 477 l 0 608 l 87 608 l 174 608 l 174 781 m 434 694 l 434 868 l 347 868 l 260 868 l 260 694 l 260 521 l 174 521 l 87 521 l 87 477 l 87 434 l 130 434 l 174 434 l 174 391 l 174 347 l 217 347 l 260 347 l 260 304 l 260 260 l 347 260 l 434 260 l 434 304 l 434 347 l 477 347 l 521 347 l 521 391 l 521 434 l 564 434 l 608 434 l 608 477 l 608 521 l 521 521 l 434 521 l 434 694 z "},"":{"ha":694,"x_min":0,"x_max":694,"o":"m 174 911 l 174 1042 l 260 1042 l 347 1042 l 347 998 l 347 955 l 391 955 l 434 955 l 434 911 l 434 868 l 477 868 l 521 868 l 521 825 l 521 781 l 564 781 l 608 781 l 608 738 l 608 694 l 651 694 l 694 694 l 694 608 l 694 521 l 651 521 l 608 521 l 608 477 l 608 434 l 564 434 l 521 434 l 521 391 l 521 347 l 477 347 l 434 347 l 434 304 l 434 260 l 391 260 l 347 260 l 347 217 l 347 174 l 260 174 l 174 174 l 174 304 l 174 434 l 87 434 l 0 434 l 0 608 l 0 781 l 87 781 l 174 781 l 174 911 m 347 825 l 347 868 l 304 868 l 260 868 l 260 781 l 260 694 l 174 694 l 87 694 l 87 608 l 87 521 l 174 521 l 260 521 l 260 434 l 260 347 l 304 347 l 347 347 l 347 391 l 347 434 l 391 434 l 434 434 l 434 477 l 434 521 l 477 521 l 521 521 l 521 608 l 521 694 l 477 694 l 434 694 l 434 738 l 434 781 l 391 781 l 347 781 l 347 825 z "},"":{"ha":694,"x_min":0,"x_max":694,"o":"m 347 998 l 347 1042 l 434 1042 l 521 1042 l 521 911 l 521 781 l 608 781 l 694 781 l 694 608 l 694 434 l 608 434 l 521 434 l 521 304 l 521 174 l 434 174 l 347 174 l 347 217 l 347 260 l 304 260 l 260 260 l 260 304 l 260 347 l 217 347 l 174 347 l 174 391 l 174 434 l 130 434 l 87 434 l 87 477 l 87 521 l 43 521 l 0 521 l 0 608 l 0 694 l 43 694 l 87 694 l 87 738 l 87 781 l 130 781 l 174 781 l 174 825 l 174 868 l 217 868 l 260 868 l 260 911 l 260 955 l 304 955 l 347 955 l 347 998 m 434 781 l 434 868 l 391 868 l 347 868 l 347 825 l 347 781 l 304 781 l 260 781 l 260 738 l 260 694 l 217 694 l 174 694 l 174 608 l 174 521 l 217 521 l 260 521 l 260 477 l 260 434 l 304 434 l 347 434 l 347 391 l 347 347 l 391 347 l 434 347 l 434 434 l 434 521 l 521 521 l 608 521 l 608 608 l 608 694 l 521 694 l 434 694 l 434 781 z "},"":{"ha":694,"x_min":0,"x_max":608,"o":"m 260 434 l 260 521 l 304 521 l 347 521 l 347 434 l 347 347 l 391 347 l 434 347 l 434 260 l 434 174 l 477 174 l 521 174 l 521 130 l 521 87 l 304 87 l 87 87 l 87 130 l 87 174 l 130 174 l 174 174 l 174 260 l 174 347 l 217 347 l 260 347 l 260 434 m 521 781 l 521 868 l 564 868 l 608 868 l 608 564 l 608 260 l 564 260 l 521 260 l 521 347 l 521 434 l 477 434 l 434 434 l 434 564 l 434 694 l 477 694 l 521 694 l 521 781 m 0 564 l 0 868 l 43 868 l 87 868 l 87 781 l 87 694 l 130 694 l 174 694 l 174 564 l 174 434 l 130 434 l 87 434 l 87 347 l 87 260 l 43 260 l 0 260 l 0 564 m 87 998 l 87 1042 l 304 1042 l 521 1042 l 521 998 l 521 955 l 477 955 l 434 955 l 434 868 l 434 781 l 391 781 l 347 781 l 347 694 l 347 608 l 304 608 l 260 608 l 260 694 l 260 781 l 217 781 l 174 781 l 174 868 l 174 955 l 130 955 l 87 955 l 87 998 z "},"":{"ha":694,"x_min":0,"x_max":608,"o":"m 521 434 l 521 521 l 564 521 l 608 521 l 608 304 l 608 87 l 477 87 l 347 87 l 347 130 l 347 174 l 391 174 l 434 174 l 434 260 l 434 347 l 477 347 l 521 347 l 521 434 m 0 564 l 0 1042 l 304 1042 l 608 1042 l 608 911 l 608 781 l 564 781 l 521 781 l 521 694 l 521 608 l 477 608 l 434 608 l 434 521 l 434 434 l 391 434 l 347 434 l 347 347 l 347 260 l 304 260 l 260 260 l 260 174 l 260 87 l 130 87 l 0 87 l 0 564 z "},"":{"ha":694,"x_min":0,"x_max":608,"o":"m 521 434 l 521 521 l 564 521 l 608 521 l 608 304 l 608 87 l 477 87 l 347 87 l 347 130 l 347 174 l 391 174 l 434 174 l 434 260 l 434 347 l 477 347 l 521 347 l 521 434 m 0 304 l 0 521 l 43 521 l 87 521 l 87 434 l 87 347 l 130 347 l 174 347 l 174 260 l 174 174 l 217 174 l 260 174 l 260 130 l 260 87 l 130 87 l 0 87 l 0 304 m 260 781 l 260 868 l 304 868 l 347 868 l 347 781 l 347 694 l 391 694 l 434 694 l 434 564 l 434 434 l 391 434 l 347 434 l 347 347 l 347 260 l 304 260 l 260 260 l 260 347 l 260 434 l 217 434 l 174 434 l 174 564 l 174 694 l 217 694 l 260 694 l 260 781 m 347 998 l 347 1042 l 477 1042 l 608 1042 l 608 825 l 608 608 l 564 608 l 521 608 l 521 694 l 521 781 l 477 781 l 434 781 l 434 868 l 434 955 l 391 955 l 347 955 l 347 998 m 0 825 l 0 1042 l 130 1042 l 260 1042 l 260 998 l 260 955 l 217 955 l 174 955 l 174 868 l 174 781 l 130 781 l 87 781 l 87 694 l 87 608 l 43 608 l 0 608 l 0 825 z "},"":{"ha":694,"x_min":0,"x_max":694,"o":"m 608 955 l 608 1042 l 651 1042 l 694 1042 l 694 868 l 694 694 l 651 694 l 608 694 l 608 608 l 608 521 l 564 521 l 521 521 l 521 434 l 521 347 l 477 347 l 434 347 l 434 260 l 434 174 l 391 174 l 347 174 l 347 87 l 347 0 l 304 0 l 260 0 l 260 -43 l 260 -87 l 217 -87 l 174 -87 l 174 0 l 174 87 l 130 87 l 87 87 l 87 174 l 87 260 l 43 260 l 0 260 l 0 391 l 0 521 l 43 521 l 87 521 l 87 434 l 87 347 l 130 347 l 174 347 l 174 260 l 174 174 l 217 174 l 260 174 l 260 260 l 260 347 l 304 347 l 347 347 l 347 434 l 347 521 l 391 521 l 434 521 l 434 608 l 434 694 l 477 694 l 521 694 l 521 781 l 521 868 l 564 868 l 608 868 l 608 955 z "},"":{"ha":694,"x_min":0,"x_max":694,"o":"m 260 564 l 260 694 l 304 694 l 347 694 l 347 608 l 347 521 l 434 521 l 521 521 l 521 477 l 521 434 l 391 434 l 260 434 l 260 564 m 174 911 l 174 955 l 347 955 l 521 955 l 521 911 l 521 868 l 564 868 l 608 868 l 608 825 l 608 781 l 651 781 l 694 781 l 694 521 l 694 260 l 651 260 l 608 260 l 608 217 l 608 174 l 564 174 l 521 174 l 521 130 l 521 87 l 347 87 l 174 87 l 174 130 l 174 174 l 130 174 l 87 174 l 87 217 l 87 260 l 43 260 l 0 260 l 0 521 l 0 781 l 43 781 l 87 781 l 87 825 l 87 868 l 130 868 l 174 868 l 174 911 m 434 825 l 434 868 l 347 868 l 260 868 l 260 825 l 260 781 l 217 781 l 174 781 l 174 738 l 174 694 l 130 694 l 87 694 l 87 521 l 87 347 l 130 347 l 174 347 l 174 304 l 174 260 l 217 260 l 260 260 l 260 217 l 260 174 l 347 174 l 434 174 l 434 217 l 434 260 l 477 260 l 521 260 l 521 304 l 521 347 l 564 347 l 608 347 l 608 521 l 608 694 l 564 694 l 521 694 l 521 738 l 521 781 l 477 781 l 434 781 l 434 825 z "},"":{"ha":694,"x_min":0,"x_max":694,"o":"m 260 825 l 260 868 l 347 868 l 434 868 l 434 825 l 434 781 l 477 781 l 521 781 l 521 564 l 521 347 l 564 347 l 608 347 l 608 304 l 608 260 l 651 260 l 694 260 l 694 217 l 694 174 l 521 174 l 347 174 l 347 130 l 347 87 l 391 87 l 434 87 l 434 43 l 434 0 l 391 0 l 347 0 l 347 -43 l 347 -87 l 304 -87 l 260 -87 l 260 -43 l 260 0 l 217 0 l 174 0 l 174 43 l 174 87 l 217 87 l 260 87 l 260 130 l 260 174 l 130 174 l 0 174 l 0 217 l 0 260 l 43 260 l 87 260 l 87 304 l 87 347 l 130 347 l 174 347 l 174 564 l 174 781 l 217 781 l 260 781 l 260 825 z "},"":{"ha":694,"x_min":0,"x_max":694,"o":"m 347 781 l 347 1042 l 391 1042 l 434 1042 l 434 998 l 434 955 l 521 955 l 608 955 l 608 911 l 608 868 l 651 868 l 694 868 l 694 781 l 694 694 l 651 694 l 608 694 l 608 738 l 608 781 l 521 781 l 434 781 l 434 564 l 434 347 l 391 347 l 347 347 l 347 304 l 347 260 l 217 260 l 87 260 l 87 304 l 87 347 l 43 347 l 0 347 l 0 391 l 0 434 l 43 434 l 87 434 l 87 477 l 87 521 l 217 521 l 347 521 l 347 781 z "},"":{"ha":694,"x_min":87,"x_max":608,"o":"m 260 304 l 260 521 l 434 521 l 608 521 l 608 477 l 608 434 l 477 434 l 347 434 l 347 391 l 347 347 l 434 347 l 521 347 l 521 304 l 521 260 l 434 260 l 347 260 l 347 174 l 347 87 l 304 87 l 260 87 l 260 304 m 87 825 l 87 1042 l 260 1042 l 434 1042 l 434 998 l 434 955 l 304 955 l 174 955 l 174 911 l 174 868 l 260 868 l 347 868 l 347 825 l 347 781 l 260 781 l 174 781 l 174 694 l 174 608 l 130 608 l 87 608 l 87 825 z "},"":{"ha":694,"x_min":87,"x_max":608,"o":"m 260 304 l 260 521 l 391 521 l 521 521 l 521 477 l 521 434 l 564 434 l 608 434 l 608 391 l 608 347 l 564 347 l 521 347 l 521 260 l 521 174 l 564 174 l 608 174 l 608 130 l 608 87 l 564 87 l 521 87 l 521 130 l 521 174 l 477 174 l 434 174 l 434 217 l 434 260 l 391 260 l 347 260 l 347 174 l 347 87 l 304 87 l 260 87 l 260 304 m 521 391 l 521 434 l 434 434 l 347 434 l 347 391 l 347 347 l 434 347 l 521 347 l 521 391 m 174 998 l 174 1042 l 304 1042 l 434 1042 l 434 998 l 434 955 l 304 955 l 174 955 l 174 825 l 174 694 l 304 694 l 434 694 l 434 651 l 434 608 l 304 608 l 174 608 l 174 651 l 174 694 l 130 694 l 87 694 l 87 825 l 87 955 l 130 955 l 174 955 l 174 998 z "},"":{"ha":694,"x_min":0,"x_max":0,"o":""},"":{"ha":694,"x_min":0,"x_max":0,"o":""},"":{"ha":694,"x_min":0,"x_max":608,"o":"m 0 304 l 0 521 l 43 521 l 87 521 l 87 477 l 87 434 l 130 434 l 174 434 l 174 304 l 174 174 l 304 174 l 434 174 l 434 304 l 434 434 l 477 434 l 521 434 l 521 477 l 521 521 l 564 521 l 608 521 l 608 304 l 608 87 l 564 87 l 521 87 l 521 43 l 521 0 l 304 0 l 87 0 l 87 43 l 87 87 l 43 87 l 0 87 l 0 304 m 174 130 l 174 174 l 130 174 l 87 174 l 87 130 l 87 87 l 130 87 l 174 87 l 174 130 m 521 130 l 521 174 l 477 174 l 434 174 l 434 130 l 434 87 l 477 87 l 521 87 l 521 130 m 87 1085 l 87 1128 l 304 1128 l 521 1128 l 521 1085 l 521 1042 l 564 1042 l 608 1042 l 608 825 l 608 608 l 564 608 l 521 608 l 521 651 l 521 694 l 477 694 l 434 694 l 434 825 l 434 955 l 304 955 l 174 955 l 174 825 l 174 694 l 130 694 l 87 694 l 87 651 l 87 608 l 43 608 l 0 608 l 0 825 l 0 1042 l 43 1042 l 87 1042 l 87 1085 m 174 998 l 174 1042 l 130 1042 l 87 1042 l 87 998 l 87 955 l 130 955 l 174 955 l 174 998 m 521 998 l 521 1042 l 477 1042 l 434 1042 l 434 998 l 434 955 l 477 955 l 521 955 l 521 998 z "},"":{"ha":694,"x_min":434,"x_max":608,"o":"m 521 477 l 521 521 l 564 521 l 608 521 l 608 304 l 608 87 l 564 87 l 521 87 l 521 130 l 521 174 l 477 174 l 434 174 l 434 304 l 434 434 l 477 434 l 521 434 l 521 477 m 521 998 l 521 1042 l 564 1042 l 608 1042 l 608 825 l 608 608 l 564 608 l 521 608 l 521 651 l 521 694 l 477 694 l 434 694 l 434 825 l 434 955 l 477 955 l 521 955 l 521 998 z "},"":{"ha":694,"x_min":0,"x_max":608,"o":"m 87 1085 l 87 1128 l 304 1128 l 521 1128 l 521 1085 l 521 1042 l 564 1042 l 608 1042 l 608 825 l 608 608 l 564 608 l 521 608 l 521 564 l 521 521 l 477 521 l 434 521 l 434 477 l 434 434 l 304 434 l 174 434 l 174 304 l 174 174 l 304 174 l 434 174 l 434 130 l 434 87 l 477 87 l 521 87 l 521 43 l 521 0 l 304 0 l 87 0 l 87 43 l 87 87 l 43 87 l 0 87 l 0 304 l 0 521 l 43 521 l 87 521 l 87 564 l 87 608 l 130 608 l 174 608 l 174 651 l 174 694 l 304 694 l 434 694 l 434 825 l 434 955 l 304 955 l 174 955 l 174 998 l 174 1042 l 130 1042 l 87 1042 l 87 1085 m 521 998 l 521 1042 l 477 1042 l 434 1042 l 434 998 l 434 955 l 477 955 l 521 955 l 521 998 m 521 651 l 521 694 l 477 694 l 434 694 l 434 651 l 434 608 l 477 608 l 521 608 l 521 651 m 174 477 l 174 521 l 130 521 l 87 521 l 87 477 l 87 434 l 130 434 l 174 434 l 174 477 m 174 130 l 174 174 l 130 174 l 87 174 l 87 130 l 87 87 l 130 87 l 174 87 l 174 130 z "},"":{"ha":694,"x_min":87,"x_max":608,"o":"m 87 1085 l 87 1128 l 304 1128 l 521 1128 l 521 1085 l 521 1042 l 564 1042 l 608 1042 l 608 825 l 608 608 l 564 608 l 521 608 l 521 564 l 521 521 l 564 521 l 608 521 l 608 304 l 608 87 l 564 87 l 521 87 l 521 43 l 521 0 l 304 0 l 87 0 l 87 43 l 87 87 l 130 87 l 174 87 l 174 130 l 174 174 l 304 174 l 434 174 l 434 304 l 434 434 l 304 434 l 174 434 l 174 477 l 174 521 l 130 521 l 87 521 l 87 564 l 87 608 l 130 608 l 174 608 l 174 651 l 174 694 l 304 694 l 434 694 l 434 825 l 434 955 l 304 955 l 174 955 l 174 998 l 174 1042 l 130 1042 l 87 1042 l 87 1085 m 521 998 l 521 1042 l 477 1042 l 434 1042 l 434 998 l 434 955 l 477 955 l 521 955 l 521 998 m 521 651 l 521 694 l 477 694 l 434 694 l 434 651 l 434 608 l 477 608 l 521 608 l 521 651 m 521 477 l 521 521 l 477 521 l 434 521 l 434 477 l 434 434 l 477 434 l 521 434 l 521 477 m 521 130 l 521 174 l 477 174 l 434 174 l 434 130 l 434 87 l 477 87 l 521 87 l 521 130 z "},"":{"ha":694,"x_min":0,"x_max":608,"o":"m 0 825 l 0 1042 l 43 1042 l 87 1042 l 87 998 l 87 955 l 130 955 l 174 955 l 174 825 l 174 694 l 304 694 l 434 694 l 434 825 l 434 955 l 477 955 l 521 955 l 521 998 l 521 1042 l 564 1042 l 608 1042 l 608 825 l 608 608 l 564 608 l 521 608 l 521 564 l 521 521 l 564 521 l 608 521 l 608 304 l 608 87 l 564 87 l 521 87 l 521 130 l 521 174 l 477 174 l 434 174 l 434 304 l 434 434 l 304 434 l 174 434 l 174 477 l 174 521 l 130 521 l 87 521 l 87 564 l 87 608 l 43 608 l 0 608 l 0 825 m 174 651 l 174 694 l 130 694 l 87 694 l 87 651 l 87 608 l 130 608 l 174 608 l 174 651 m 521 651 l 521 694 l 477 694 l 434 694 l 434 651 l 434 608 l 477 608 l 521 608 l 521 651 m 521 477 l 521 521 l 477 521 l 434 521 l 434 477 l 434 434 l 477 434 l 521 434 l 521 477 z "},"":{"ha":694,"x_min":0,"x_max":608,"o":"m 87 1085 l 87 1128 l 304 1128 l 521 1128 l 521 1085 l 521 1042 l 477 1042 l 434 1042 l 434 998 l 434 955 l 304 955 l 174 955 l 174 825 l 174 694 l 304 694 l 434 694 l 434 651 l 434 608 l 477 608 l 521 608 l 521 564 l 521 521 l 564 521 l 608 521 l 608 304 l 608 87 l 564 87 l 521 87 l 521 43 l 521 0 l 304 0 l 87 0 l 87 43 l 87 87 l 130 87 l 174 87 l 174 130 l 174 174 l 304 174 l 434 174 l 434 304 l 434 434 l 304 434 l 174 434 l 174 477 l 174 521 l 130 521 l 87 521 l 87 564 l 87 608 l 43 608 l 0 608 l 0 825 l 0 1042 l 43 1042 l 87 1042 l 87 1085 m 174 998 l 174 1042 l 130 1042 l 87 1042 l 87 998 l 87 955 l 130 955 l 174 955 l 174 998 m 174 651 l 174 694 l 130 694 l 87 694 l 87 651 l 87 608 l 130 608 l 174 608 l 174 651 m 521 477 l 521 521 l 477 521 l 434 521 l 434 477 l 434 434 l 477 434 l 521 434 l 521 477 m 521 130 l 521 174 l 477 174 l 434 174 l 434 130 l 434 87 l 477 87 l 521 87 l 521 130 z "},"":{"ha":694,"x_min":0,"x_max":608,"o":"m 87 1085 l 87 1128 l 304 1128 l 521 1128 l 521 1085 l 521 1042 l 477 1042 l 434 1042 l 434 998 l 434 955 l 304 955 l 174 955 l 174 825 l 174 694 l 304 694 l 434 694 l 434 651 l 434 608 l 477 608 l 521 608 l 521 564 l 521 521 l 564 521 l 608 521 l 608 304 l 608 87 l 564 87 l 521 87 l 521 43 l 521 0 l 304 0 l 87 0 l 87 43 l 87 87 l 43 87 l 0 87 l 0 304 l 0 521 l 43 521 l 87 521 l 87 564 l 87 608 l 43 608 l 0 608 l 0 825 l 0 1042 l 43 1042 l 87 1042 l 87 1085 m 174 998 l 174 1042 l 130 1042 l 87 1042 l 87 998 l 87 955 l 130 955 l 174 955 l 174 998 m 174 651 l 174 694 l 130 694 l 87 694 l 87 651 l 87 608 l 130 608 l 174 608 l 174 651 m 174 477 l 174 521 l 130 521 l 87 521 l 87 477 l 87 434 l 130 434 l 174 434 l 174 304 l 174 174 l 130 174 l 87 174 l 87 130 l 87 87 l 130 87 l 174 87 l 174 130 l 174 174 l 304 174 l 434 174 l 434 130 l 434 87 l 477 87 l 521 87 l 521 130 l 521 174 l 477 174 l 434 174 l 434 304 l 434 434 l 477 434 l 521 434 l 521 477 l 521 521 l 477 521 l 434 521 l 434 477 l 434 434 l 304 434 l 174 434 l 174 477 z "},"":{"ha":694,"x_min":0,"x_max":608,"o":"m 521 477 l 521 521 l 564 521 l 608 521 l 608 304 l 608 87 l 564 87 l 521 87 l 521 130 l 521 174 l 477 174 l 434 174 l 434 304 l 434 434 l 477 434 l 521 434 l 521 477 m 87 1085 l 87 1128 l 304 1128 l 521 1128 l 521 1085 l 521 1042 l 564 1042 l 608 1042 l 608 825 l 608 608 l 564 608 l 521 608 l 521 651 l 521 694 l 477 694 l 434 694 l 434 825 l 434 955 l 304 955 l 174 955 l 174 825 l 174 694 l 130 694 l 87 694 l 87 651 l 87 608 l 43 608 l 0 608 l 0 825 l 0 1042 l 43 1042 l 87 1042 l 87 1085 m 174 998 l 174 1042 l 130 1042 l 87 1042 l 87 998 l 87 955 l 130 955 l 174 955 l 174 998 m 521 998 l 521 1042 l 477 1042 l 434 1042 l 434 998 l 434 955 l 477 955 l 521 955 l 521 998 z "},"":{"ha":694,"x_min":0,"x_max":608,"o":"m 87 1085 l 87 1128 l 304 1128 l 521 1128 l 521 1085 l 521 1042 l 564 1042 l 608 1042 l 608 825 l 608 608 l 564 608 l 521 608 l 521 564 l 521 521 l 564 521 l 608 521 l 608 304 l 608 87 l 564 87 l 521 87 l 521 43 l 521 0 l 304 0 l 87 0 l 87 43 l 87 87 l 43 87 l 0 87 l 0 304 l 0 521 l 43 521 l 87 521 l 87 564 l 87 608 l 43 608 l 0 608 l 0 825 l 0 1042 l 43 1042 l 87 1042 l 87 1085 m 174 998 l 174 1042 l 130 1042 l 87 1042 l 87 998 l 87 955 l 130 955 l 174 955 l 174 825 l 174 694 l 130 694 l 87 694 l 87 651 l 87 608 l 130 608 l 174 608 l 174 651 l 174 694 l 304 694 l 434 694 l 434 651 l 434 608 l 477 608 l 521 608 l 521 651 l 521 694 l 477 694 l 434 694 l 434 825 l 434 955 l 477 955 l 521 955 l 521 998 l 521 1042 l 477 1042 l 434 1042 l 434 998 l 434 955 l 304 955 l 174 955 l 174 998 m 174 477 l 174 521 l 130 521 l 87 521 l 87 477 l 87 434 l 130 434 l 174 434 l 174 304 l 174 174 l 130 174 l 87 174 l 87 130 l 87 87 l 130 87 l 174 87 l 174 130 l 174 174 l 304 174 l 434 174 l 434 130 l 434 87 l 477 87 l 521 87 l 521 130 l 521 174 l 477 174 l 434 174 l 434 304 l 434 434 l 477 434 l 521 434 l 521 477 l 521 521 l 477 521 l 434 521 l 434 477 l 434 434 l 304 434 l 174 434 l 174 477 z "},"":{"ha":694,"x_min":0,"x_max":608,"o":"m 87 1085 l 87 1128 l 304 1128 l 521 1128 l 521 1085 l 521 1042 l 564 1042 l 608 1042 l 608 825 l 608 608 l 564 608 l 521 608 l 521 564 l 521 521 l 564 521 l 608 521 l 608 304 l 608 87 l 564 87 l 521 87 l 521 43 l 521 0 l 304 0 l 87 0 l 87 43 l 87 87 l 130 87 l 174 87 l 174 130 l 174 174 l 304 174 l 434 174 l 434 304 l 434 434 l 304 434 l 174 434 l 174 477 l 174 521 l 130 521 l 87 521 l 87 564 l 87 608 l 43 608 l 0 608 l 0 825 l 0 1042 l 43 1042 l 87 1042 l 87 1085 m 174 998 l 174 1042 l 130 1042 l 87 1042 l 87 998 l 87 955 l 130 955 l 174 955 l 174 825 l 174 694 l 130 694 l 87 694 l 87 651 l 87 608 l 130 608 l 174 608 l 174 651 l 174 694 l 304 694 l 434 694 l 434 651 l 434 608 l 477 608 l 521 608 l 521 651 l 521 694 l 477 694 l 434 694 l 434 825 l 434 955 l 477 955 l 521 955 l 521 998 l 521 1042 l 477 1042 l 434 1042 l 434 998 l 434 955 l 304 955 l 174 955 l 174 998 m 521 477 l 521 521 l 477 521 l 434 521 l 434 477 l 434 434 l 477 434 l 521 434 l 521 477 m 521 130 l 521 174 l 477 174 l 434 174 l 434 130 l 434 87 l 477 87 l 521 87 l 521 130 z "},"":{"ha":694,"x_min":87,"x_max":608,"o":"m 87 694 l 87 781 l 304 781 l 521 781 l 521 738 l 521 694 l 564 694 l 608 694 l 608 391 l 608 87 l 564 87 l 521 87 l 521 43 l 521 0 l 347 0 l 174 0 l 174 43 l 174 87 l 130 87 l 87 87 l 87 260 l 87 434 l 260 434 l 434 434 l 434 521 l 434 608 l 260 608 l 87 608 l 87 694 m 434 260 l 434 347 l 347 347 l 260 347 l 260 260 l 260 174 l 347 174 l 434 174 l 434 260 z "},"":{"ha":694,"x_min":87,"x_max":608,"o":"m 347 477 l 347 521 l 477 521 l 608 521 l 608 477 l 608 434 l 477 434 l 347 434 l 347 391 l 347 347 l 434 347 l 521 347 l 521 304 l 521 260 l 564 260 l 608 260 l 608 217 l 608 174 l 564 174 l 521 174 l 521 130 l 521 87 l 391 87 l 260 87 l 260 130 l 260 174 l 391 174 l 521 174 l 521 217 l 521 260 l 434 260 l 347 260 l 347 304 l 347 347 l 304 347 l 260 347 l 260 391 l 260 434 l 304 434 l 347 434 l 347 477 m 87 825 l 87 1042 l 260 1042 l 434 1042 l 434 998 l 434 955 l 304 955 l 174 955 l 174 911 l 174 868 l 260 868 l 347 868 l 347 825 l 347 781 l 260 781 l 174 781 l 174 738 l 174 694 l 304 694 l 434 694 l 434 651 l 434 608 l 260 608 l 87 608 l 87 825 z "},"":{"ha":694,"x_min":0,"x_max":0,"o":""},"":{"ha":694,"x_min":0,"x_max":0,"o":""},"":{"ha":694,"x_min":0,"x_max":0,"o":""},"":{"ha":694,"x_min":87,"x_max":608,"o":"m 347 998 l 347 1042 l 477 1042 l 608 1042 l 608 955 l 608 868 l 521 868 l 434 868 l 434 738 l 434 608 l 521 608 l 608 608 l 608 564 l 608 521 l 521 521 l 434 521 l 434 304 l 434 87 l 391 87 l 347 87 l 347 43 l 347 0 l 304 0 l 260 0 l 260 -43 l 260 -87 l 174 -87 l 87 -87 l 87 0 l 87 87 l 174 87 l 260 87 l 260 304 l 260 521 l 174 521 l 87 521 l 87 564 l 87 608 l 174 608 l 260 608 l 260 781 l 260 955 l 304 955 l 347 955 l 347 998 z "},"":{"ha":694,"x_min":0,"x_max":0,"o":""},"":{"ha":694,"x_min":260,"x_max":434,"o":"m 260 304 l 260 694 l 347 694 l 434 694 l 434 304 l 434 -87 l 347 -87 l 260 -87 l 260 304 m 260 868 l 260 955 l 347 955 l 434 955 l 434 868 l 434 781 l 347 781 l 260 781 l 260 868 z "},"":{"ha":694,"x_min":87,"x_max":608,"o":"m 260 955 l 260 1042 l 347 1042 l 434 1042 l 434 955 l 434 868 l 477 868 l 521 868 l 521 825 l 521 781 l 564 781 l 608 781 l 608 694 l 608 608 l 521 608 l 434 608 l 434 651 l 434 694 l 347 694 l 260 694 l 260 521 l 260 347 l 347 347 l 434 347 l 434 391 l 434 434 l 521 434 l 608 434 l 608 347 l 608 260 l 564 260 l 521 260 l 521 217 l 521 174 l 477 174 l 434 174 l 434 87 l 434 0 l 347 0 l 260 0 l 260 87 l 260 174 l 217 174 l 174 174 l 174 217 l 174 260 l 130 260 l 87 260 l 87 521 l 87 781 l 130 781 l 174 781 l 174 825 l 174 868 l 217 868 l 260 868 l 260 955 z "},"":{"ha":694,"x_min":0,"x_max":694,"o":"m 347 1085 l 347 1128 l 477 1128 l 608 1128 l 608 1042 l 608 955 l 521 955 l 434 955 l 434 911 l 434 868 l 391 868 l 347 868 l 347 694 l 347 521 l 477 521 l 608 521 l 608 477 l 608 434 l 477 434 l 347 434 l 347 304 l 347 174 l 521 174 l 694 174 l 694 87 l 694 0 l 347 0 l 0 0 l 0 43 l 0 87 l 43 87 l 87 87 l 87 130 l 87 174 l 130 174 l 174 174 l 174 304 l 174 434 l 87 434 l 0 434 l 0 477 l 0 521 l 87 521 l 174 521 l 174 738 l 174 955 l 217 955 l 260 955 l 260 998 l 260 1042 l 304 1042 l 347 1042 l 347 1085 z "},"":{"ha":694,"x_min":0,"x_max":608,"o":"m 174 911 l 174 955 l 347 955 l 521 955 l 521 911 l 521 868 l 564 868 l 608 868 l 608 781 l 608 694 l 521 694 l 434 694 l 434 738 l 434 781 l 347 781 l 260 781 l 260 694 l 260 608 l 391 608 l 521 608 l 521 564 l 521 521 l 391 521 l 260 521 l 260 477 l 260 434 l 391 434 l 521 434 l 521 391 l 521 347 l 391 347 l 260 347 l 260 260 l 260 174 l 347 174 l 434 174 l 434 217 l 434 260 l 521 260 l 608 260 l 608 174 l 608 87 l 564 87 l 521 87 l 521 43 l 521 0 l 347 0 l 174 0 l 174 43 l 174 87 l 130 87 l 87 87 l 87 217 l 87 347 l 43 347 l 0 347 l 0 391 l 0 434 l 43 434 l 87 434 l 87 477 l 87 521 l 43 521 l 0 521 l 0 564 l 0 608 l 43 608 l 87 608 l 87 738 l 87 868 l 130 868 l 174 868 l 174 911 z "},"":{"ha":694,"x_min":87,"x_max":608,"o":"m 87 825 l 87 1042 l 174 1042 l 260 1042 l 260 868 l 260 694 l 347 694 l 434 694 l 434 868 l 434 1042 l 521 1042 l 608 1042 l 608 825 l 608 608 l 564 608 l 521 608 l 521 564 l 521 521 l 477 521 l 434 521 l 434 477 l 434 434 l 521 434 l 608 434 l 608 391 l 608 347 l 521 347 l 434 347 l 434 174 l 434 0 l 347 0 l 260 0 l 260 174 l 260 347 l 174 347 l 87 347 l 87 391 l 87 434 l 174 434 l 260 434 l 260 477 l 260 521 l 217 521 l 174 521 l 174 564 l 174 608 l 130 608 l 87 608 l 87 825 z "},"":{"ha":694,"x_min":87,"x_max":608,"o":"m 87 1172 l 87 1215 l 174 1215 l 260 1215 l 260 1172 l 260 1128 l 347 1128 l 434 1128 l 434 1172 l 434 1215 l 521 1215 l 608 1215 l 608 1172 l 608 1128 l 564 1128 l 521 1128 l 521 1085 l 521 1042 l 477 1042 l 434 1042 l 434 998 l 434 955 l 521 955 l 608 955 l 608 868 l 608 781 l 434 781 l 260 781 l 260 738 l 260 694 l 304 694 l 347 694 l 347 651 l 347 608 l 391 608 l 434 608 l 434 564 l 434 521 l 477 521 l 521 521 l 521 477 l 521 434 l 564 434 l 608 434 l 608 260 l 608 87 l 564 87 l 521 87 l 521 43 l 521 0 l 304 0 l 87 0 l 87 87 l 87 174 l 260 174 l 434 174 l 434 260 l 434 347 l 391 347 l 347 347 l 347 391 l 347 434 l 304 434 l 260 434 l 260 477 l 260 521 l 217 521 l 174 521 l 174 564 l 174 608 l 130 608 l 87 608 l 87 738 l 87 868 l 130 868 l 174 868 l 174 911 l 174 955 l 217 955 l 260 955 l 260 998 l 260 1042 l 217 1042 l 174 1042 l 174 1085 l 174 1128 l 130 1128 l 87 1128 l 87 1172 z "},"":{"ha":694,"x_min":87,"x_max":608,"o":"m 260 998 l 260 1042 l 391 1042 l 521 1042 l 521 998 l 521 955 l 564 955 l 608 955 l 608 868 l 608 781 l 564 781 l 521 781 l 521 825 l 521 868 l 477 868 l 434 868 l 434 911 l 434 955 l 391 955 l 347 955 l 347 868 l 347 781 l 391 781 l 434 781 l 434 738 l 434 694 l 477 694 l 521 694 l 521 651 l 521 608 l 564 608 l 608 608 l 608 521 l 608 434 l 564 434 l 521 434 l 521 391 l 521 347 l 477 347 l 434 347 l 434 304 l 434 260 l 477 260 l 521 260 l 521 174 l 521 87 l 477 87 l 434 87 l 434 43 l 434 0 l 304 0 l 174 0 l 174 43 l 174 87 l 130 87 l 87 87 l 87 174 l 87 260 l 130 260 l 174 260 l 174 217 l 174 174 l 217 174 l 260 174 l 260 130 l 260 87 l 304 87 l 347 87 l 347 174 l 347 260 l 304 260 l 260 260 l 260 304 l 260 347 l 217 347 l 174 347 l 174 391 l 174 434 l 130 434 l 87 434 l 87 521 l 87 608 l 130 608 l 174 608 l 174 651 l 174 694 l 217 694 l 260 694 l 260 738 l 260 781 l 217 781 l 174 781 l 174 868 l 174 955 l 217 955 l 260 955 l 260 998 m 434 521 l 434 608 l 347 608 l 260 608 l 260 521 l 260 434 l 347 434 l 434 434 l 434 521 z "},"":{"ha":694,"x_min":87,"x_max":608,"o":"m 174 738 l 174 781 l 391 781 l 608 781 l 608 694 l 608 608 l 434 608 l 260 608 l 260 564 l 260 521 l 304 521 l 347 521 l 347 477 l 347 434 l 434 434 l 521 434 l 521 391 l 521 347 l 564 347 l 608 347 l 608 217 l 608 87 l 564 87 l 521 87 l 521 43 l 521 0 l 304 0 l 87 0 l 87 87 l 87 174 l 260 174 l 434 174 l 434 217 l 434 260 l 391 260 l 347 260 l 347 304 l 347 347 l 260 347 l 174 347 l 174 391 l 174 434 l 130 434 l 87 434 l 87 564 l 87 694 l 130 694 l 174 694 l 174 738 m 87 1085 l 87 1128 l 174 1128 l 260 1128 l 260 1085 l 260 1042 l 347 1042 l 434 1042 l 434 1085 l 434 1128 l 521 1128 l 608 1128 l 608 1085 l 608 1042 l 564 1042 l 521 1042 l 521 998 l 521 955 l 477 955 l 434 955 l 434 911 l 434 868 l 347 868 l 260 868 l 260 911 l 260 955 l 217 955 l 174 955 l 174 998 l 174 1042 l 130 1042 l 87 1042 l 87 1085 z "},"":{"ha":694,"x_min":0,"x_max":608,"o":"m 174 564 l 174 781 l 304 781 l 434 781 l 434 738 l 434 694 l 347 694 l 260 694 l 260 564 l 260 434 l 347 434 l 434 434 l 434 391 l 434 347 l 304 347 l 174 347 l 174 564 m 87 998 l 87 1042 l 304 1042 l 521 1042 l 521 998 l 521 955 l 564 955 l 608 955 l 608 564 l 608 174 l 564 174 l 521 174 l 521 130 l 521 87 l 304 87 l 87 87 l 87 130 l 87 174 l 43 174 l 0 174 l 0 564 l 0 955 l 43 955 l 87 955 l 87 998 m 434 911 l 434 955 l 304 955 l 174 955 l 174 911 l 174 868 l 130 868 l 87 868 l 87 564 l 87 260 l 130 260 l 174 260 l 174 217 l 174 174 l 304 174 l 434 174 l 434 217 l 434 260 l 477 260 l 521 260 l 521 564 l 521 868 l 477 868 l 434 868 l 434 911 z "},"":{"ha":694,"x_min":87,"x_max":608,"o":"m 87 -43 l 87 0 l 347 0 l 608 0 l 608 -43 l 608 -87 l 347 -87 l 87 -87 l 87 -43 m 174 781 l 174 868 l 347 868 l 521 868 l 521 825 l 521 781 l 564 781 l 608 781 l 608 434 l 608 87 l 391 87 l 174 87 l 174 130 l 174 174 l 130 174 l 87 174 l 87 347 l 87 521 l 130 521 l 174 521 l 174 564 l 174 608 l 304 608 l 434 608 l 434 651 l 434 694 l 304 694 l 174 694 l 174 781 m 434 347 l 434 434 l 347 434 l 260 434 l 260 347 l 260 260 l 347 260 l 434 260 l 434 347 z "},"":{"ha":694,"x_min":0,"x_max":608,"o":"m 260 651 l 260 694 l 347 694 l 434 694 l 434 651 l 434 608 l 477 608 l 521 608 l 521 651 l 521 694 l 564 694 l 608 694 l 608 608 l 608 521 l 564 521 l 521 521 l 521 477 l 521 434 l 477 434 l 434 434 l 434 391 l 434 347 l 477 347 l 521 347 l 521 304 l 521 260 l 564 260 l 608 260 l 608 174 l 608 87 l 564 87 l 521 87 l 521 130 l 521 174 l 477 174 l 434 174 l 434 130 l 434 87 l 347 87 l 260 87 l 260 130 l 260 174 l 217 174 l 174 174 l 174 217 l 174 260 l 130 260 l 87 260 l 87 304 l 87 347 l 43 347 l 0 347 l 0 391 l 0 434 l 43 434 l 87 434 l 87 477 l 87 521 l 130 521 l 174 521 l 174 564 l 174 608 l 217 608 l 260 608 l 260 651 m 434 564 l 434 608 l 391 608 l 347 608 l 347 564 l 347 521 l 304 521 l 260 521 l 260 477 l 260 434 l 217 434 l 174 434 l 174 391 l 174 347 l 217 347 l 260 347 l 260 304 l 260 260 l 304 260 l 347 260 l 347 217 l 347 174 l 391 174 l 434 174 l 434 217 l 434 260 l 391 260 l 347 260 l 347 304 l 347 347 l 304 347 l 260 347 l 260 391 l 260 434 l 304 434 l 347 434 l 347 477 l 347 521 l 391 521 l 434 521 l 434 564 z "},"":{"ha":694,"x_min":87,"x_max":608,"o":"m 87 347 l 87 434 l 347 434 l 608 434 l 608 217 l 608 0 l 521 0 l 434 0 l 434 130 l 434 260 l 260 260 l 87 260 l 87 347 z "},"":{"ha":694,"x_min":174,"x_max":521,"o":"m 174 347 l 174 434 l 347 434 l 521 434 l 521 347 l 521 260 l 347 260 l 174 260 l 174 347 z "},"":{"ha":694,"x_min":0,"x_max":608,"o":"m 174 564 l 174 781 l 304 781 l 434 781 l 434 694 l 434 608 l 391 608 l 347 608 l 347 564 l 347 521 l 391 521 l 434 521 l 434 434 l 434 347 l 391 347 l 347 347 l 347 391 l 347 434 l 304 434 l 260 434 l 260 391 l 260 347 l 217 347 l 174 347 l 174 564 m 347 651 l 347 694 l 304 694 l 260 694 l 260 651 l 260 608 l 304 608 l 347 608 l 347 651 m 87 998 l 87 1042 l 304 1042 l 521 1042 l 521 998 l 521 955 l 564 955 l 608 955 l 608 564 l 608 174 l 564 174 l 521 174 l 521 130 l 521 87 l 304 87 l 87 87 l 87 130 l 87 174 l 43 174 l 0 174 l 0 564 l 0 955 l 43 955 l 87 955 l 87 998 m 434 911 l 434 955 l 304 955 l 174 955 l 174 911 l 174 868 l 130 868 l 87 868 l 87 564 l 87 260 l 130 260 l 174 260 l 174 217 l 174 174 l 304 174 l 434 174 l 434 217 l 434 260 l 477 260 l 521 260 l 521 564 l 521 868 l 477 868 l 434 868 l 434 911 z "},"":{"ha":694,"x_min":0,"x_max":608,"o":"m 0 1042 l 0 1128 l 304 1128 l 608 1128 l 608 1042 l 608 955 l 304 955 l 0 955 l 0 1042 z "},"":{"ha":694,"x_min":87,"x_max":521,"o":"m 174 1085 l 174 1128 l 304 1128 l 434 1128 l 434 1085 l 434 1042 l 477 1042 l 521 1042 l 521 911 l 521 781 l 477 781 l 434 781 l 434 738 l 434 694 l 304 694 l 174 694 l 174 738 l 174 781 l 130 781 l 87 781 l 87 911 l 87 1042 l 130 1042 l 174 1042 l 174 1085 m 347 998 l 347 1042 l 304 1042 l 260 1042 l 260 998 l 260 955 l 217 955 l 174 955 l 174 911 l 174 868 l 217 868 l 260 868 l 260 825 l 260 781 l 304 781 l 347 781 l 347 825 l 347 868 l 391 868 l 434 868 l 434 911 l 434 955 l 391 955 l 347 955 l 347 998 z "},"":{"ha":694,"x_min":87,"x_max":608,"o":"m 87 87 l 87 174 l 347 174 l 608 174 l 608 87 l 608 0 l 347 0 l 87 0 l 87 87 m 260 825 l 260 955 l 347 955 l 434 955 l 434 825 l 434 694 l 521 694 l 608 694 l 608 608 l 608 521 l 521 521 l 434 521 l 434 391 l 434 260 l 347 260 l 260 260 l 260 391 l 260 521 l 174 521 l 87 521 l 87 608 l 87 694 l 174 694 l 260 694 l 260 825 z "},"":{"ha":694,"x_min":87,"x_max":434,"o":"m 174 998 l 174 1042 l 260 1042 l 347 1042 l 347 998 l 347 955 l 391 955 l 434 955 l 434 868 l 434 781 l 391 781 l 347 781 l 347 738 l 347 694 l 304 694 l 260 694 l 260 651 l 260 608 l 347 608 l 434 608 l 434 564 l 434 521 l 260 521 l 87 521 l 87 608 l 87 694 l 130 694 l 174 694 l 174 738 l 174 781 l 217 781 l 260 781 l 260 825 l 260 868 l 304 868 l 347 868 l 347 911 l 347 955 l 260 955 l 174 955 l 174 911 l 174 868 l 130 868 l 87 868 l 87 911 l 87 955 l 130 955 l 174 955 l 174 998 z "},"":{"ha":694,"x_min":87,"x_max":434,"o":"m 87 998 l 87 1042 l 260 1042 l 434 1042 l 434 955 l 434 868 l 391 868 l 347 868 l 347 825 l 347 781 l 391 781 l 434 781 l 434 694 l 434 608 l 391 608 l 347 608 l 347 564 l 347 521 l 260 521 l 174 521 l 174 564 l 174 608 l 130 608 l 87 608 l 87 651 l 87 694 l 130 694 l 174 694 l 174 651 l 174 608 l 260 608 l 347 608 l 347 651 l 347 694 l 304 694 l 260 694 l 260 738 l 260 781 l 217 781 l 174 781 l 174 825 l 174 868 l 217 868 l 260 868 l 260 911 l 260 955 l 174 955 l 87 955 l 87 998 z "},"":{"ha":694,"x_min":87,"x_max":608,"o":"m 87 1172 l 87 1215 l 174 1215 l 260 1215 l 260 1172 l 260 1128 l 347 1128 l 434 1128 l 434 1172 l 434 1215 l 521 1215 l 608 1215 l 608 1172 l 608 1128 l 564 1128 l 521 1128 l 521 1085 l 521 1042 l 477 1042 l 434 1042 l 434 998 l 434 955 l 521 955 l 608 955 l 608 868 l 608 781 l 564 781 l 521 781 l 521 738 l 521 694 l 477 694 l 434 694 l 434 608 l 434 521 l 391 521 l 347 521 l 347 434 l 347 347 l 304 347 l 260 347 l 260 260 l 260 174 l 434 174 l 608 174 l 608 87 l 608 0 l 347 0 l 87 0 l 87 174 l 87 347 l 130 347 l 174 347 l 174 434 l 174 521 l 217 521 l 260 521 l 260 608 l 260 694 l 304 694 l 347 694 l 347 738 l 347 781 l 217 781 l 87 781 l 87 868 l 87 955 l 174 955 l 260 955 l 260 998 l 260 1042 l 217 1042 l 174 1042 l 174 1085 l 174 1128 l 130 1128 l 87 1128 l 87 1172 z "},"":{"ha":694,"x_min":0,"x_max":694,"o":"m 87 434 l 87 781 l 174 781 l 260 781 l 260 521 l 260 260 l 347 260 l 434 260 l 434 521 l 434 781 l 521 781 l 608 781 l 608 521 l 608 260 l 651 260 l 694 260 l 694 174 l 694 87 l 651 87 l 608 87 l 608 130 l 608 174 l 564 174 l 521 174 l 521 130 l 521 87 l 391 87 l 260 87 l 260 130 l 260 174 l 217 174 l 174 174 l 174 87 l 174 0 l 130 0 l 87 0 l 87 -43 l 87 -87 l 43 -87 l 0 -87 l 0 0 l 0 87 l 43 87 l 87 87 l 87 434 z "},"":{"ha":694,"x_min":0,"x_max":608,"o":"m 521 521 l 521 1042 l 564 1042 l 608 1042 l 608 521 l 608 0 l 564 0 l 521 0 l 521 521 m 87 998 l 87 1042 l 260 1042 l 434 1042 l 434 521 l 434 0 l 391 0 l 347 0 l 347 217 l 347 434 l 217 434 l 87 434 l 87 477 l 87 521 l 43 521 l 0 521 l 0 738 l 0 955 l 43 955 l 87 955 l 87 998 m 347 738 l 347 955 l 260 955 l 174 955 l 174 738 l 174 521 l 260 521 l 347 521 l 347 738 z "},"":{"ha":694,"x_min":174,"x_max":521,"o":"m 260 564 l 260 608 l 347 608 l 434 608 l 434 564 l 434 521 l 477 521 l 521 521 l 521 434 l 521 347 l 477 347 l 434 347 l 434 304 l 434 260 l 347 260 l 260 260 l 260 304 l 260 347 l 217 347 l 174 347 l 174 434 l 174 521 l 217 521 l 260 521 l 260 564 z "},"":{"ha":694,"x_min":87,"x_max":608,"o":"m 87 694 l 87 781 l 347 781 l 608 781 l 608 694 l 608 608 l 564 608 l 521 608 l 521 564 l 521 521 l 477 521 l 434 521 l 434 434 l 434 347 l 391 347 l 347 347 l 347 260 l 347 174 l 477 174 l 608 174 l 608 87 l 608 0 l 347 0 l 87 0 l 87 87 l 87 174 l 130 174 l 174 174 l 174 260 l 174 347 l 217 347 l 260 347 l 260 434 l 260 521 l 304 521 l 347 521 l 347 564 l 347 608 l 217 608 l 87 608 l 87 694 m 87 1085 l 87 1128 l 174 1128 l 260 1128 l 260 1085 l 260 1042 l 347 1042 l 434 1042 l 434 1085 l 434 1128 l 521 1128 l 608 1128 l 608 1085 l 608 1042 l 564 1042 l 521 1042 l 521 998 l 521 955 l 477 955 l 434 955 l 434 911 l 434 868 l 347 868 l 260 868 l 260 911 l 260 955 l 217 955 l 174 955 l 174 998 l 174 1042 l 130 1042 l 87 1042 l 87 1085 z "},"":{"ha":694,"x_min":87,"x_max":260,"o":"m 87 998 l 87 1042 l 174 1042 l 260 1042 l 260 781 l 260 521 l 217 521 l 174 521 l 174 738 l 174 955 l 130 955 l 87 955 l 87 998 z "},"":{"ha":694,"x_min":87,"x_max":608,"o":"m 87 -43 l 87 0 l 347 0 l 608 0 l 608 -43 l 608 -87 l 347 -87 l 87 -87 l 87 -43 m 174 825 l 174 868 l 347 868 l 521 868 l 521 825 l 521 781 l 564 781 l 608 781 l 608 477 l 608 174 l 564 174 l 521 174 l 521 130 l 521 87 l 347 87 l 174 87 l 174 130 l 174 174 l 130 174 l 87 174 l 87 477 l 87 781 l 130 781 l 174 781 l 174 825 m 434 477 l 434 694 l 347 694 l 260 694 l 260 477 l 260 260 l 347 260 l 434 260 l 434 477 z "},"":{"ha":694,"x_min":0,"x_max":608,"o":"m 0 608 l 0 694 l 43 694 l 87 694 l 87 651 l 87 608 l 130 608 l 174 608 l 174 651 l 174 694 l 260 694 l 347 694 l 347 651 l 347 608 l 391 608 l 434 608 l 434 564 l 434 521 l 477 521 l 521 521 l 521 477 l 521 434 l 564 434 l 608 434 l 608 391 l 608 347 l 564 347 l 521 347 l 521 304 l 521 260 l 477 260 l 434 260 l 434 217 l 434 174 l 391 174 l 347 174 l 347 130 l 347 87 l 260 87 l 174 87 l 174 130 l 174 174 l 130 174 l 87 174 l 87 130 l 87 87 l 43 87 l 0 87 l 0 174 l 0 260 l 43 260 l 87 260 l 87 304 l 87 347 l 130 347 l 174 347 l 174 391 l 174 434 l 130 434 l 87 434 l 87 477 l 87 521 l 43 521 l 0 521 l 0 608 m 260 564 l 260 608 l 217 608 l 174 608 l 174 564 l 174 521 l 217 521 l 260 521 l 260 477 l 260 434 l 304 434 l 347 434 l 347 391 l 347 347 l 304 347 l 260 347 l 260 304 l 260 260 l 217 260 l 174 260 l 174 217 l 174 174 l 217 174 l 260 174 l 260 217 l 260 260 l 304 260 l 347 260 l 347 304 l 347 347 l 391 347 l 434 347 l 434 391 l 434 434 l 391 434 l 347 434 l 347 477 l 347 521 l 304 521 l 260 521 l 260 564 z "},"":{"ha":694,"x_min":0,"x_max":608,"o":"m 87 1085 l 87 1128 l 347 1128 l 608 1128 l 608 1042 l 608 955 l 521 955 l 434 955 l 434 825 l 434 694 l 521 694 l 608 694 l 608 608 l 608 521 l 521 521 l 434 521 l 434 347 l 434 174 l 521 174 l 608 174 l 608 87 l 608 0 l 347 0 l 87 0 l 87 43 l 87 87 l 43 87 l 0 87 l 0 564 l 0 1042 l 43 1042 l 87 1042 l 87 1085 m 260 564 l 260 955 l 217 955 l 174 955 l 174 564 l 174 174 l 217 174 l 260 174 l 260 564 z "},"":{"ha":694,"x_min":0,"x_max":694,"o":"m 87 738 l 87 781 l 217 781 l 347 781 l 347 738 l 347 694 l 391 694 l 434 694 l 434 738 l 434 781 l 521 781 l 608 781 l 608 738 l 608 694 l 651 694 l 694 694 l 694 521 l 694 347 l 564 347 l 434 347 l 434 260 l 434 174 l 564 174 l 694 174 l 694 87 l 694 0 l 564 0 l 434 0 l 434 43 l 434 87 l 391 87 l 347 87 l 347 43 l 347 0 l 217 0 l 87 0 l 87 43 l 87 87 l 43 87 l 0 87 l 0 391 l 0 694 l 43 694 l 87 694 l 87 738 m 260 391 l 260 608 l 217 608 l 174 608 l 174 391 l 174 174 l 217 174 l 260 174 l 260 391 m 521 521 l 521 608 l 477 608 l 434 608 l 434 521 l 434 434 l 477 434 l 521 434 l 521 521 z "},"":{"ha":694,"x_min":87,"x_max":608,"o":"m 87 694 l 87 868 l 174 868 l 260 868 l 260 694 l 260 521 l 347 521 l 434 521 l 434 694 l 434 868 l 521 868 l 608 868 l 608 694 l 608 521 l 564 521 l 521 521 l 521 434 l 521 347 l 477 347 l 434 347 l 434 174 l 434 0 l 347 0 l 260 0 l 260 174 l 260 347 l 217 347 l 174 347 l 174 434 l 174 521 l 130 521 l 87 521 l 87 694 m 434 1042 l 434 1128 l 521 1128 l 608 1128 l 608 1042 l 608 955 l 521 955 l 434 955 l 434 1042 m 87 1042 l 87 1128 l 174 1128 l 260 1128 l 260 1042 l 260 955 l 174 955 l 87 955 l 87 1042 z "},"":{"ha":694,"x_min":87,"x_max":608,"o":"m 260 651 l 260 781 l 347 781 l 434 781 l 434 651 l 434 521 l 391 521 l 347 521 l 347 434 l 347 347 l 304 347 l 260 347 l 260 260 l 260 174 l 347 174 l 434 174 l 434 260 l 434 347 l 521 347 l 608 347 l 608 217 l 608 87 l 564 87 l 521 87 l 521 43 l 521 0 l 347 0 l 174 0 l 174 43 l 174 87 l 130 87 l 87 87 l 87 217 l 87 347 l 130 347 l 174 347 l 174 434 l 174 521 l 217 521 l 260 521 l 260 651 m 260 955 l 260 1042 l 347 1042 l 434 1042 l 434 955 l 434 868 l 347 868 l 260 868 l 260 955 z "},"":{"ha":694,"x_min":87,"x_max":608,"o":"m 174 825 l 174 868 l 347 868 l 521 868 l 521 825 l 521 781 l 564 781 l 608 781 l 608 391 l 608 0 l 521 0 l 434 0 l 434 174 l 434 347 l 347 347 l 260 347 l 260 174 l 260 0 l 174 0 l 87 0 l 87 391 l 87 781 l 130 781 l 174 781 l 174 825 m 434 608 l 434 694 l 347 694 l 260 694 l 260 608 l 260 521 l 347 521 l 434 521 l 434 608 m 87 1172 l 87 1215 l 174 1215 l 260 1215 l 260 1172 l 260 1128 l 304 1128 l 347 1128 l 347 1085 l 347 1042 l 391 1042 l 434 1042 l 434 998 l 434 955 l 347 955 l 260 955 l 260 998 l 260 1042 l 217 1042 l 174 1042 l 174 1085 l 174 1128 l 130 1128 l 87 1128 l 87 1172 z "},"":{"ha":694,"x_min":87,"x_max":608,"o":"m 174 825 l 174 868 l 347 868 l 521 868 l 521 825 l 521 781 l 564 781 l 608 781 l 608 391 l 608 0 l 521 0 l 434 0 l 434 174 l 434 347 l 347 347 l 260 347 l 260 174 l 260 0 l 174 0 l 87 0 l 87 391 l 87 781 l 130 781 l 174 781 l 174 825 m 434 608 l 434 694 l 347 694 l 260 694 l 260 608 l 260 521 l 347 521 l 434 521 l 434 608 m 434 1172 l 434 1215 l 521 1215 l 608 1215 l 608 1172 l 608 1128 l 564 1128 l 521 1128 l 521 1085 l 521 1042 l 477 1042 l 434 1042 l 434 998 l 434 955 l 347 955 l 260 955 l 260 998 l 260 1042 l 304 1042 l 347 1042 l 347 1085 l 347 1128 l 391 1128 l 434 1128 l 434 1172 z "},"":{"ha":694,"x_min":87,"x_max":608,"o":"m 174 825 l 174 868 l 347 868 l 521 868 l 521 825 l 521 781 l 564 781 l 608 781 l 608 391 l 608 0 l 521 0 l 434 0 l 434 174 l 434 347 l 347 347 l 260 347 l 260 174 l 260 0 l 174 0 l 87 0 l 87 391 l 87 781 l 130 781 l 174 781 l 174 825 m 434 608 l 434 694 l 347 694 l 260 694 l 260 608 l 260 521 l 347 521 l 434 521 l 434 608 m 260 1172 l 260 1215 l 347 1215 l 434 1215 l 434 1172 l 434 1128 l 477 1128 l 521 1128 l 521 1085 l 521 1042 l 564 1042 l 608 1042 l 608 998 l 608 955 l 521 955 l 434 955 l 434 998 l 434 1042 l 347 1042 l 260 1042 l 260 998 l 260 955 l 174 955 l 87 955 l 87 998 l 87 1042 l 130 1042 l 174 1042 l 174 1085 l 174 1128 l 217 1128 l 260 1128 l 260 1172 z "},"":{"ha":694,"x_min":87,"x_max":608,"o":"m 174 825 l 174 868 l 347 868 l 521 868 l 521 825 l 521 781 l 564 781 l 608 781 l 608 391 l 608 0 l 521 0 l 434 0 l 434 174 l 434 347 l 347 347 l 260 347 l 260 174 l 260 0 l 174 0 l 87 0 l 87 391 l 87 781 l 130 781 l 174 781 l 174 825 m 434 608 l 434 694 l 347 694 l 260 694 l 260 608 l 260 521 l 347 521 l 434 521 l 434 608 m 174 1172 l 174 1215 l 260 1215 l 347 1215 l 347 1172 l 347 1128 l 391 1128 l 434 1128 l 434 1085 l 434 1042 l 477 1042 l 521 1042 l 521 1128 l 521 1215 l 564 1215 l 608 1215 l 608 1128 l 608 1042 l 564 1042 l 521 1042 l 521 998 l 521 955 l 434 955 l 347 955 l 347 998 l 347 1042 l 260 1042 l 174 1042 l 174 998 l 174 955 l 130 955 l 87 955 l 87 1042 l 87 1128 l 130 1128 l 174 1128 l 174 1172 z "},"":{"ha":694,"x_min":87,"x_max":608,"o":"m 87 1042 l 87 1128 l 174 1128 l 260 1128 l 260 1042 l 260 955 l 347 955 l 434 955 l 434 1042 l 434 1128 l 521 1128 l 608 1128 l 608 1042 l 608 955 l 521 955 l 434 955 l 434 911 l 434 868 l 477 868 l 521 868 l 521 825 l 521 781 l 564 781 l 608 781 l 608 391 l 608 0 l 521 0 l 434 0 l 434 174 l 434 347 l 347 347 l 260 347 l 260 174 l 260 0 l 174 0 l 87 0 l 87 391 l 87 781 l 130 781 l 174 781 l 174 825 l 174 868 l 217 868 l 260 868 l 260 911 l 260 955 l 174 955 l 87 955 l 87 1042 m 434 608 l 434 694 l 347 694 l 260 694 l 260 608 l 260 521 l 347 521 l 434 521 l 434 608 z "},"":{"ha":694,"x_min":87,"x_max":608,"o":"m 174 1172 l 174 1215 l 347 1215 l 521 1215 l 521 1172 l 521 1128 l 564 1128 l 608 1128 l 608 1085 l 608 1042 l 564 1042 l 521 1042 l 521 998 l 521 955 l 477 955 l 434 955 l 434 911 l 434 868 l 477 868 l 521 868 l 521 825 l 521 781 l 564 781 l 608 781 l 608 391 l 608 0 l 521 0 l 434 0 l 434 174 l 434 347 l 347 347 l 260 347 l 260 174 l 260 0 l 174 0 l 87 0 l 87 391 l 87 781 l 130 781 l 174 781 l 174 825 l 174 868 l 217 868 l 260 868 l 260 911 l 260 955 l 217 955 l 174 955 l 174 998 l 174 1042 l 130 1042 l 87 1042 l 87 1085 l 87 1128 l 130 1128 l 174 1128 l 174 1172 m 434 1085 l 434 1128 l 347 1128 l 260 1128 l 260 1085 l 260 1042 l 347 1042 l 434 1042 l 434 1085 m 434 608 l 434 694 l 347 694 l 260 694 l 260 608 l 260 521 l 347 521 l 434 521 l 434 608 z "},"":{"ha":694,"x_min":0,"x_max":608,"o":"m 174 1085 l 174 1128 l 391 1128 l 608 1128 l 608 1042 l 608 955 l 521 955 l 434 955 l 434 825 l 434 694 l 521 694 l 608 694 l 608 608 l 608 521 l 521 521 l 434 521 l 434 347 l 434 174 l 521 174 l 608 174 l 608 87 l 608 0 l 434 0 l 260 0 l 260 174 l 260 347 l 217 347 l 174 347 l 174 174 l 174 0 l 87 0 l 0 0 l 0 477 l 0 955 l 43 955 l 87 955 l 87 998 l 87 1042 l 130 1042 l 174 1042 l 174 1085 m 260 694 l 260 868 l 217 868 l 174 868 l 174 694 l 174 521 l 217 521 l 260 521 l 260 694 z "},"":{"ha":694,"x_min":87,"x_max":608,"o":"m 174 998 l 174 1042 l 347 1042 l 521 1042 l 521 998 l 521 955 l 564 955 l 608 955 l 608 825 l 608 694 l 521 694 l 434 694 l 434 781 l 434 868 l 347 868 l 260 868 l 260 521 l 260 174 l 347 174 l 434 174 l 434 260 l 434 347 l 521 347 l 608 347 l 608 217 l 608 87 l 564 87 l 521 87 l 521 0 l 521 -87 l 477 -87 l 434 -87 l 434 -130 l 434 -174 l 304 -174 l 174 -174 l 174 -130 l 174 -87 l 260 -87 l 347 -87 l 347 -43 l 347 0 l 260 0 l 174 0 l 174 43 l 174 87 l 130 87 l 87 87 l 87 521 l 87 955 l 130 955 l 174 955 l 174 998 z "},"":{"ha":694,"x_min":87,"x_max":608,"o":"m 87 434 l 87 868 l 347 868 l 608 868 l 608 781 l 608 694 l 434 694 l 260 694 l 260 651 l 260 608 l 391 608 l 521 608 l 521 521 l 521 434 l 391 434 l 260 434 l 260 304 l 260 174 l 434 174 l 608 174 l 608 87 l 608 0 l 347 0 l 87 0 l 87 434 m 87 1172 l 87 1215 l 174 1215 l 260 1215 l 260 1172 l 260 1128 l 304 1128 l 347 1128 l 347 1085 l 347 1042 l 391 1042 l 434 1042 l 434 998 l 434 955 l 347 955 l 260 955 l 260 998 l 260 1042 l 217 1042 l 174 1042 l 174 1085 l 174 1128 l 130 1128 l 87 1128 l 87 1172 z "},"":{"ha":694,"x_min":87,"x_max":608,"o":"m 87 434 l 87 868 l 347 868 l 608 868 l 608 781 l 608 694 l 434 694 l 260 694 l 260 651 l 260 608 l 391 608 l 521 608 l 521 521 l 521 434 l 391 434 l 260 434 l 260 304 l 260 174 l 434 174 l 608 174 l 608 87 l 608 0 l 347 0 l 87 0 l 87 434 m 434 1172 l 434 1215 l 521 1215 l 608 1215 l 608 1172 l 608 1128 l 564 1128 l 521 1128 l 521 1085 l 521 1042 l 477 1042 l 434 1042 l 434 998 l 434 955 l 347 955 l 260 955 l 260 998 l 260 1042 l 304 1042 l 347 1042 l 347 1085 l 347 1128 l 391 1128 l 434 1128 l 434 1172 z "},"":{"ha":694,"x_min":87,"x_max":608,"o":"m 87 434 l 87 868 l 347 868 l 608 868 l 608 781 l 608 694 l 434 694 l 260 694 l 260 651 l 260 608 l 391 608 l 521 608 l 521 521 l 521 434 l 391 434 l 260 434 l 260 304 l 260 174 l 434 174 l 608 174 l 608 87 l 608 0 l 347 0 l 87 0 l 87 434 m 260 1172 l 260 1215 l 347 1215 l 434 1215 l 434 1172 l 434 1128 l 477 1128 l 521 1128 l 521 1085 l 521 1042 l 564 1042 l 608 1042 l 608 998 l 608 955 l 521 955 l 434 955 l 434 998 l 434 1042 l 347 1042 l 260 1042 l 260 998 l 260 955 l 174 955 l 87 955 l 87 998 l 87 1042 l 130 1042 l 174 1042 l 174 1085 l 174 1128 l 217 1128 l 260 1128 l 260 1172 z "},"":{"ha":694,"x_min":87,"x_max":608,"o":"m 87 434 l 87 868 l 347 868 l 608 868 l 608 781 l 608 694 l 434 694 l 260 694 l 260 651 l 260 608 l 391 608 l 521 608 l 521 521 l 521 434 l 391 434 l 260 434 l 260 304 l 260 174 l 434 174 l 608 174 l 608 87 l 608 0 l 347 0 l 87 0 l 87 434 m 434 1042 l 434 1128 l 521 1128 l 608 1128 l 608 1042 l 608 955 l 521 955 l 434 955 l 434 1042 m 87 1042 l 87 1128 l 174 1128 l 260 1128 l 260 1042 l 260 955 l 174 955 l 87 955 l 87 1042 z "},"":{"ha":694,"x_min":87,"x_max":608,"o":"m 87 781 l 87 868 l 347 868 l 608 868 l 608 781 l 608 694 l 521 694 l 434 694 l 434 434 l 434 174 l 521 174 l 608 174 l 608 87 l 608 0 l 347 0 l 87 0 l 87 87 l 87 174 l 174 174 l 260 174 l 260 434 l 260 694 l 174 694 l 87 694 l 87 781 m 87 1172 l 87 1215 l 174 1215 l 260 1215 l 260 1172 l 260 1128 l 304 1128 l 347 1128 l 347 1085 l 347 1042 l 391 1042 l 434 1042 l 434 998 l 434 955 l 347 955 l 260 955 l 260 998 l 260 1042 l 217 1042 l 174 1042 l 174 1085 l 174 1128 l 130 1128 l 87 1128 l 87 1172 z "},"":{"ha":694,"x_min":87,"x_max":608,"o":"m 87 781 l 87 868 l 347 868 l 608 868 l 608 781 l 608 694 l 521 694 l 434 694 l 434 434 l 434 174 l 521 174 l 608 174 l 608 87 l 608 0 l 347 0 l 87 0 l 87 87 l 87 174 l 174 174 l 260 174 l 260 434 l 260 694 l 174 694 l 87 694 l 87 781 m 434 1172 l 434 1215 l 521 1215 l 608 1215 l 608 1172 l 608 1128 l 564 1128 l 521 1128 l 521 1085 l 521 1042 l 477 1042 l 434 1042 l 434 998 l 434 955 l 347 955 l 260 955 l 260 998 l 260 1042 l 304 1042 l 347 1042 l 347 1085 l 347 1128 l 391 1128 l 434 1128 l 434 1172 z "},"":{"ha":694,"x_min":87,"x_max":608,"o":"m 87 781 l 87 868 l 347 868 l 608 868 l 608 781 l 608 694 l 521 694 l 434 694 l 434 434 l 434 174 l 521 174 l 608 174 l 608 87 l 608 0 l 347 0 l 87 0 l 87 87 l 87 174 l 174 174 l 260 174 l 260 434 l 260 694 l 174 694 l 87 694 l 87 781 m 260 1172 l 260 1215 l 347 1215 l 434 1215 l 434 1172 l 434 1128 l 477 1128 l 521 1128 l 521 1085 l 521 1042 l 564 1042 l 608 1042 l 608 998 l 608 955 l 521 955 l 434 955 l 434 998 l 434 1042 l 347 1042 l 260 1042 l 260 998 l 260 955 l 174 955 l 87 955 l 87 998 l 87 1042 l 130 1042 l 174 1042 l 174 1085 l 174 1128 l 217 1128 l 260 1128 l 260 1172 z "},"":{"ha":694,"x_min":87,"x_max":608,"o":"m 87 781 l 87 868 l 347 868 l 608 868 l 608 781 l 608 694 l 521 694 l 434 694 l 434 434 l 434 174 l 521 174 l 608 174 l 608 87 l 608 0 l 347 0 l 87 0 l 87 87 l 87 174 l 174 174 l 260 174 l 260 434 l 260 694 l 174 694 l 87 694 l 87 781 m 434 1042 l 434 1128 l 521 1128 l 608 1128 l 608 1042 l 608 955 l 521 955 l 434 955 l 434 1042 m 87 1042 l 87 1128 l 174 1128 l 260 1128 l 260 1042 l 260 955 l 174 955 l 87 955 l 87 1042 z "},"":{"ha":694,"x_min":0,"x_max":608,"o":"m 87 825 l 87 1042 l 260 1042 l 434 1042 l 434 998 l 434 955 l 477 955 l 521 955 l 521 911 l 521 868 l 564 868 l 608 868 l 608 521 l 608 174 l 564 174 l 521 174 l 521 130 l 521 87 l 477 87 l 434 87 l 434 43 l 434 0 l 260 0 l 87 0 l 87 217 l 87 434 l 43 434 l 0 434 l 0 521 l 0 608 l 43 608 l 87 608 l 87 825 m 347 825 l 347 868 l 304 868 l 260 868 l 260 738 l 260 608 l 304 608 l 347 608 l 347 521 l 347 434 l 304 434 l 260 434 l 260 304 l 260 174 l 304 174 l 347 174 l 347 217 l 347 260 l 391 260 l 434 260 l 434 521 l 434 781 l 391 781 l 347 781 l 347 825 z "},"":{"ha":694,"x_min":87,"x_max":608,"o":"m 87 391 l 87 781 l 174 781 l 260 781 l 260 694 l 260 608 l 304 608 l 347 608 l 347 564 l 347 521 l 391 521 l 434 521 l 434 651 l 434 781 l 521 781 l 608 781 l 608 391 l 608 0 l 521 0 l 434 0 l 434 130 l 434 260 l 391 260 l 347 260 l 347 304 l 347 347 l 304 347 l 260 347 l 260 174 l 260 0 l 174 0 l 87 0 l 87 391 m 174 1085 l 174 1128 l 260 1128 l 347 1128 l 347 1085 l 347 1042 l 391 1042 l 434 1042 l 434 998 l 434 955 l 477 955 l 521 955 l 521 1042 l 521 1128 l 564 1128 l 608 1128 l 608 1042 l 608 955 l 564 955 l 521 955 l 521 911 l 521 868 l 434 868 l 347 868 l 347 911 l 347 955 l 260 955 l 174 955 l 174 911 l 174 868 l 130 868 l 87 868 l 87 955 l 87 1042 l 130 1042 l 174 1042 l 174 1085 z "},"":{"ha":694,"x_min":87,"x_max":608,"o":"m 174 825 l 174 868 l 347 868 l 521 868 l 521 825 l 521 781 l 564 781 l 608 781 l 608 434 l 608 87 l 564 87 l 521 87 l 521 43 l 521 0 l 347 0 l 174 0 l 174 43 l 174 87 l 130 87 l 87 87 l 87 434 l 87 781 l 130 781 l 174 781 l 174 825 m 434 434 l 434 694 l 347 694 l 260 694 l 260 434 l 260 174 l 347 174 l 434 174 l 434 434 m 87 1172 l 87 1215 l 174 1215 l 260 1215 l 260 1172 l 260 1128 l 304 1128 l 347 1128 l 347 1085 l 347 1042 l 391 1042 l 434 1042 l 434 998 l 434 955 l 347 955 l 260 955 l 260 998 l 260 1042 l 217 1042 l 174 1042 l 174 1085 l 174 1128 l 130 1128 l 87 1128 l 87 1172 z "},"":{"ha":694,"x_min":87,"x_max":608,"o":"m 174 825 l 174 868 l 347 868 l 521 868 l 521 825 l 521 781 l 564 781 l 608 781 l 608 434 l 608 87 l 564 87 l 521 87 l 521 43 l 521 0 l 347 0 l 174 0 l 174 43 l 174 87 l 130 87 l 87 87 l 87 434 l 87 781 l 130 781 l 174 781 l 174 825 m 434 434 l 434 694 l 347 694 l 260 694 l 260 434 l 260 174 l 347 174 l 434 174 l 434 434 m 434 1172 l 434 1215 l 521 1215 l 608 1215 l 608 1172 l 608 1128 l 564 1128 l 521 1128 l 521 1085 l 521 1042 l 477 1042 l 434 1042 l 434 998 l 434 955 l 347 955 l 260 955 l 260 998 l 260 1042 l 304 1042 l 347 1042 l 347 1085 l 347 1128 l 391 1128 l 434 1128 l 434 1172 z "},"":{"ha":694,"x_min":87,"x_max":608,"o":"m 174 825 l 174 868 l 347 868 l 521 868 l 521 825 l 521 781 l 564 781 l 608 781 l 608 434 l 608 87 l 564 87 l 521 87 l 521 43 l 521 0 l 347 0 l 174 0 l 174 43 l 174 87 l 130 87 l 87 87 l 87 434 l 87 781 l 130 781 l 174 781 l 174 825 m 434 434 l 434 694 l 347 694 l 260 694 l 260 434 l 260 174 l 347 174 l 434 174 l 434 434 m 260 1172 l 260 1215 l 347 1215 l 434 1215 l 434 1172 l 434 1128 l 477 1128 l 521 1128 l 521 1085 l 521 1042 l 564 1042 l 608 1042 l 608 998 l 608 955 l 521 955 l 434 955 l 434 998 l 434 1042 l 347 1042 l 260 1042 l 260 998 l 260 955 l 174 955 l 87 955 l 87 998 l 87 1042 l 130 1042 l 174 1042 l 174 1085 l 174 1128 l 217 1128 l 260 1128 l 260 1172 z "},"":{"ha":694,"x_min":87,"x_max":608,"o":"m 174 825 l 174 868 l 347 868 l 521 868 l 521 825 l 521 781 l 564 781 l 608 781 l 608 434 l 608 87 l 564 87 l 521 87 l 521 43 l 521 0 l 347 0 l 174 0 l 174 43 l 174 87 l 130 87 l 87 87 l 87 434 l 87 781 l 130 781 l 174 781 l 174 825 m 434 434 l 434 694 l 347 694 l 260 694 l 260 434 l 260 174 l 347 174 l 434 174 l 434 434 m 174 1172 l 174 1215 l 260 1215 l 347 1215 l 347 1172 l 347 1128 l 391 1128 l 434 1128 l 434 1085 l 434 1042 l 477 1042 l 521 1042 l 521 1128 l 521 1215 l 564 1215 l 608 1215 l 608 1128 l 608 1042 l 564 1042 l 521 1042 l 521 998 l 521 955 l 434 955 l 347 955 l 347 998 l 347 1042 l 260 1042 l 174 1042 l 174 998 l 174 955 l 130 955 l 87 955 l 87 1042 l 87 1128 l 130 1128 l 174 1128 l 174 1172 z "},"":{"ha":694,"x_min":87,"x_max":608,"o":"m 174 825 l 174 868 l 347 868 l 521 868 l 521 825 l 521 781 l 564 781 l 608 781 l 608 434 l 608 87 l 564 87 l 521 87 l 521 43 l 521 0 l 347 0 l 174 0 l 174 43 l 174 87 l 130 87 l 87 87 l 87 434 l 87 781 l 130 781 l 174 781 l 174 825 m 434 434 l 434 694 l 347 694 l 260 694 l 260 434 l 260 174 l 347 174 l 434 174 l 434 434 m 434 1042 l 434 1128 l 521 1128 l 608 1128 l 608 1042 l 608 955 l 521 955 l 434 955 l 434 1042 m 87 1042 l 87 1128 l 174 1128 l 260 1128 l 260 1042 l 260 955 l 174 955 l 87 955 l 87 1042 z "},"":{"ha":694,"x_min":87,"x_max":608,"o":"m 87 564 l 87 608 l 174 608 l 260 608 l 260 564 l 260 521 l 347 521 l 434 521 l 434 564 l 434 608 l 521 608 l 608 608 l 608 564 l 608 521 l 564 521 l 521 521 l 521 477 l 521 434 l 477 434 l 434 434 l 434 391 l 434 347 l 477 347 l 521 347 l 521 304 l 521 260 l 564 260 l 608 260 l 608 217 l 608 174 l 521 174 l 434 174 l 434 217 l 434 260 l 347 260 l 260 260 l 260 217 l 260 174 l 174 174 l 87 174 l 87 217 l 87 260 l 130 260 l 174 260 l 174 304 l 174 347 l 217 347 l 260 347 l 260 391 l 260 434 l 217 434 l 174 434 l 174 477 l 174 521 l 130 521 l 87 521 l 87 564 z "},"":{"ha":694,"x_min":0,"x_max":694,"o":"m 608 1042 l 608 1128 l 651 1128 l 694 1128 l 694 1042 l 694 955 l 651 955 l 608 955 l 608 521 l 608 87 l 564 87 l 521 87 l 521 43 l 521 0 l 347 0 l 174 0 l 174 43 l 174 87 l 130 87 l 87 87 l 87 0 l 87 -87 l 43 -87 l 0 -87 l 0 0 l 0 87 l 43 87 l 87 87 l 87 521 l 87 955 l 130 955 l 174 955 l 174 998 l 174 1042 l 347 1042 l 521 1042 l 521 998 l 521 955 l 564 955 l 608 955 l 608 1042 m 434 781 l 434 868 l 347 868 l 260 868 l 260 694 l 260 521 l 304 521 l 347 521 l 347 434 l 347 347 l 304 347 l 260 347 l 260 260 l 260 174 l 347 174 l 434 174 l 434 347 l 434 521 l 391 521 l 347 521 l 347 608 l 347 694 l 391 694 l 434 694 l 434 781 z "},"":{"ha":694,"x_min":87,"x_max":608,"o":"m 87 477 l 87 868 l 174 868 l 260 868 l 260 521 l 260 174 l 347 174 l 434 174 l 434 521 l 434 868 l 521 868 l 608 868 l 608 477 l 608 87 l 564 87 l 521 87 l 521 43 l 521 0 l 347 0 l 174 0 l 174 43 l 174 87 l 130 87 l 87 87 l 87 477 m 87 1172 l 87 1215 l 174 1215 l 260 1215 l 260 1172 l 260 1128 l 304 1128 l 347 1128 l 347 1085 l 347 1042 l 391 1042 l 434 1042 l 434 998 l 434 955 l 347 955 l 260 955 l 260 998 l 260 1042 l 217 1042 l 174 1042 l 174 1085 l 174 1128 l 130 1128 l 87 1128 l 87 1172 z "},"":{"ha":694,"x_min":87,"x_max":608,"o":"m 87 477 l 87 868 l 174 868 l 260 868 l 260 521 l 260 174 l 347 174 l 434 174 l 434 521 l 434 868 l 521 868 l 608 868 l 608 477 l 608 87 l 564 87 l 521 87 l 521 43 l 521 0 l 347 0 l 174 0 l 174 43 l 174 87 l 130 87 l 87 87 l 87 477 m 434 1172 l 434 1215 l 521 1215 l 608 1215 l 608 1172 l 608 1128 l 564 1128 l 521 1128 l 521 1085 l 521 1042 l 477 1042 l 434 1042 l 434 998 l 434 955 l 347 955 l 260 955 l 260 998 l 260 1042 l 304 1042 l 347 1042 l 347 1085 l 347 1128 l 391 1128 l 434 1128 l 434 1172 z "},"":{"ha":694,"x_min":87,"x_max":608,"o":"m 87 477 l 87 868 l 174 868 l 260 868 l 260 521 l 260 174 l 347 174 l 434 174 l 434 521 l 434 868 l 521 868 l 608 868 l 608 477 l 608 87 l 564 87 l 521 87 l 521 43 l 521 0 l 347 0 l 174 0 l 174 43 l 174 87 l 130 87 l 87 87 l 87 477 m 260 1172 l 260 1215 l 347 1215 l 434 1215 l 434 1172 l 434 1128 l 477 1128 l 521 1128 l 521 1085 l 521 1042 l 564 1042 l 608 1042 l 608 998 l 608 955 l 521 955 l 434 955 l 434 998 l 434 1042 l 347 1042 l 260 1042 l 260 998 l 260 955 l 174 955 l 87 955 l 87 998 l 87 1042 l 130 1042 l 174 1042 l 174 1085 l 174 1128 l 217 1128 l 260 1128 l 260 1172 z "},"":{"ha":694,"x_min":87,"x_max":608,"o":"m 87 477 l 87 868 l 174 868 l 260 868 l 260 521 l 260 174 l 347 174 l 434 174 l 434 521 l 434 868 l 521 868 l 608 868 l 608 477 l 608 87 l 564 87 l 521 87 l 521 43 l 521 0 l 347 0 l 174 0 l 174 43 l 174 87 l 130 87 l 87 87 l 87 477 m 434 1042 l 434 1128 l 521 1128 l 608 1128 l 608 1042 l 608 955 l 521 955 l 434 955 l 434 1042 m 87 1042 l 87 1128 l 174 1128 l 260 1128 l 260 1042 l 260 955 l 174 955 l 87 955 l 87 1042 z "},"":{"ha":694,"x_min":87,"x_max":608,"o":"m 87 694 l 87 868 l 174 868 l 260 868 l 260 694 l 260 521 l 347 521 l 434 521 l 434 694 l 434 868 l 521 868 l 608 868 l 608 694 l 608 521 l 564 521 l 521 521 l 521 434 l 521 347 l 477 347 l 434 347 l 434 174 l 434 0 l 347 0 l 260 0 l 260 174 l 260 347 l 217 347 l 174 347 l 174 434 l 174 521 l 130 521 l 87 521 l 87 694 m 434 1172 l 434 1215 l 521 1215 l 608 1215 l 608 1172 l 608 1128 l 564 1128 l 521 1128 l 521 1085 l 521 1042 l 477 1042 l 434 1042 l 434 998 l 434 955 l 347 955 l 260 955 l 260 998 l 260 1042 l 304 1042 l 347 1042 l 347 1085 l 347 1128 l 391 1128 l 434 1128 l 434 1172 z "},"":{"ha":694,"x_min":87,"x_max":608,"o":"m 87 521 l 87 1042 l 174 1042 l 260 1042 l 260 955 l 260 868 l 391 868 l 521 868 l 521 825 l 521 781 l 564 781 l 608 781 l 608 564 l 608 347 l 564 347 l 521 347 l 521 304 l 521 260 l 391 260 l 260 260 l 260 130 l 260 0 l 174 0 l 87 0 l 87 521 m 434 564 l 434 694 l 347 694 l 260 694 l 260 564 l 260 434 l 347 434 l 434 434 l 434 564 z "},"":{"ha":694,"x_min":87,"x_max":608,"o":"m 260 998 l 260 1042 l 347 1042 l 434 1042 l 434 998 l 434 955 l 477 955 l 521 955 l 521 911 l 521 868 l 564 868 l 608 868 l 608 738 l 608 608 l 564 608 l 521 608 l 521 564 l 521 521 l 564 521 l 608 521 l 608 391 l 608 260 l 564 260 l 521 260 l 521 174 l 521 87 l 434 87 l 347 87 l 347 130 l 347 174 l 304 174 l 260 174 l 260 87 l 260 0 l 217 0 l 174 0 l 174 -43 l 174 -87 l 130 -87 l 87 -87 l 87 391 l 87 868 l 130 868 l 174 868 l 174 911 l 174 955 l 217 955 l 260 955 l 260 998 m 434 738 l 434 868 l 347 868 l 260 868 l 260 738 l 260 608 l 347 608 l 434 608 l 434 738 m 434 391 l 434 521 l 347 521 l 260 521 l 260 391 l 260 260 l 347 260 l 434 260 l 434 391 z "},"":{"ha":694,"x_min":87,"x_max":608,"o":"m 174 694 l 174 781 l 347 781 l 521 781 l 521 738 l 521 694 l 564 694 l 608 694 l 608 347 l 608 0 l 391 0 l 174 0 l 174 43 l 174 87 l 130 87 l 87 87 l 87 260 l 87 434 l 130 434 l 174 434 l 174 477 l 174 521 l 304 521 l 434 521 l 434 564 l 434 608 l 304 608 l 174 608 l 174 694 m 434 260 l 434 347 l 347 347 l 260 347 l 260 260 l 260 174 l 347 174 l 434 174 l 434 260 m 87 1085 l 87 1128 l 174 1128 l 260 1128 l 260 1085 l 260 1042 l 304 1042 l 347 1042 l 347 998 l 347 955 l 391 955 l 434 955 l 434 911 l 434 868 l 347 868 l 260 868 l 260 911 l 260 955 l 217 955 l 174 955 l 174 998 l 174 1042 l 130 1042 l 87 1042 l 87 1085 z "},"":{"ha":694,"x_min":87,"x_max":608,"o":"m 174 694 l 174 781 l 347 781 l 521 781 l 521 738 l 521 694 l 564 694 l 608 694 l 608 347 l 608 0 l 391 0 l 174 0 l 174 43 l 174 87 l 130 87 l 87 87 l 87 260 l 87 434 l 130 434 l 174 434 l 174 477 l 174 521 l 304 521 l 434 521 l 434 564 l 434 608 l 304 608 l 174 608 l 174 694 m 434 260 l 434 347 l 347 347 l 260 347 l 260 260 l 260 174 l 347 174 l 434 174 l 434 260 m 434 1085 l 434 1128 l 521 1128 l 608 1128 l 608 1085 l 608 1042 l 564 1042 l 521 1042 l 521 998 l 521 955 l 477 955 l 434 955 l 434 911 l 434 868 l 347 868 l 260 868 l 260 911 l 260 955 l 304 955 l 347 955 l 347 998 l 347 1042 l 391 1042 l 434 1042 l 434 1085 z "},"":{"ha":694,"x_min":87,"x_max":608,"o":"m 174 694 l 174 781 l 347 781 l 521 781 l 521 738 l 521 694 l 564 694 l 608 694 l 608 347 l 608 0 l 391 0 l 174 0 l 174 43 l 174 87 l 130 87 l 87 87 l 87 260 l 87 434 l 130 434 l 174 434 l 174 477 l 174 521 l 304 521 l 434 521 l 434 564 l 434 608 l 304 608 l 174 608 l 174 694 m 434 260 l 434 347 l 347 347 l 260 347 l 260 260 l 260 174 l 347 174 l 434 174 l 434 260 m 260 1085 l 260 1128 l 347 1128 l 434 1128 l 434 1085 l 434 1042 l 477 1042 l 521 1042 l 521 998 l 521 955 l 564 955 l 608 955 l 608 911 l 608 868 l 521 868 l 434 868 l 434 911 l 434 955 l 347 955 l 260 955 l 260 911 l 260 868 l 174 868 l 87 868 l 87 911 l 87 955 l 130 955 l 174 955 l 174 998 l 174 1042 l 217 1042 l 260 1042 l 260 1085 z "},"":{"ha":694,"x_min":87,"x_max":608,"o":"m 174 694 l 174 781 l 347 781 l 521 781 l 521 738 l 521 694 l 564 694 l 608 694 l 608 347 l 608 0 l 391 0 l 174 0 l 174 43 l 174 87 l 130 87 l 87 87 l 87 260 l 87 434 l 130 434 l 174 434 l 174 477 l 174 521 l 304 521 l 434 521 l 434 564 l 434 608 l 304 608 l 174 608 l 174 694 m 434 260 l 434 347 l 347 347 l 260 347 l 260 260 l 260 174 l 347 174 l 434 174 l 434 260 m 174 1085 l 174 1128 l 260 1128 l 347 1128 l 347 1085 l 347 1042 l 391 1042 l 434 1042 l 434 998 l 434 955 l 477 955 l 521 955 l 521 1042 l 521 1128 l 564 1128 l 608 1128 l 608 1042 l 608 955 l 564 955 l 521 955 l 521 911 l 521 868 l 434 868 l 347 868 l 347 911 l 347 955 l 260 955 l 174 955 l 174 911 l 174 868 l 130 868 l 87 868 l 87 955 l 87 1042 l 130 1042 l 174 1042 l 174 1085 z "},"":{"ha":694,"x_min":87,"x_max":608,"o":"m 174 694 l 174 781 l 347 781 l 521 781 l 521 738 l 521 694 l 564 694 l 608 694 l 608 347 l 608 0 l 391 0 l 174 0 l 174 43 l 174 87 l 130 87 l 87 87 l 87 260 l 87 434 l 130 434 l 174 434 l 174 477 l 174 521 l 304 521 l 434 521 l 434 564 l 434 608 l 304 608 l 174 608 l 174 694 m 434 260 l 434 347 l 347 347 l 260 347 l 260 260 l 260 174 l 347 174 l 434 174 l 434 260 m 434 955 l 434 1042 l 521 1042 l 608 1042 l 608 955 l 608 868 l 521 868 l 434 868 l 434 955 m 87 955 l 87 1042 l 174 1042 l 260 1042 l 260 955 l 260 868 l 174 868 l 87 868 l 87 955 z "},"":{"ha":694,"x_min":87,"x_max":608,"o":"m 174 694 l 174 781 l 347 781 l 521 781 l 521 738 l 521 694 l 564 694 l 608 694 l 608 347 l 608 0 l 391 0 l 174 0 l 174 43 l 174 87 l 130 87 l 87 87 l 87 260 l 87 434 l 130 434 l 174 434 l 174 477 l 174 521 l 304 521 l 434 521 l 434 564 l 434 608 l 304 608 l 174 608 l 174 694 m 434 260 l 434 347 l 347 347 l 260 347 l 260 260 l 260 174 l 347 174 l 434 174 l 434 260 m 260 1085 l 260 1128 l 391 1128 l 521 1128 l 521 1085 l 521 1042 l 564 1042 l 608 1042 l 608 998 l 608 955 l 564 955 l 521 955 l 521 911 l 521 868 l 391 868 l 260 868 l 260 911 l 260 955 l 217 955 l 174 955 l 174 998 l 174 1042 l 217 1042 l 260 1042 l 260 1085 m 434 998 l 434 1042 l 391 1042 l 347 1042 l 347 998 l 347 955 l 391 955 l 434 955 l 434 998 z "},"":{"ha":694,"x_min":0,"x_max":694,"o":"m 87 694 l 87 781 l 217 781 l 347 781 l 347 738 l 347 694 l 391 694 l 434 694 l 434 738 l 434 781 l 521 781 l 608 781 l 608 738 l 608 694 l 651 694 l 694 694 l 694 521 l 694 347 l 564 347 l 434 347 l 434 260 l 434 174 l 564 174 l 694 174 l 694 87 l 694 0 l 391 0 l 87 0 l 87 43 l 87 87 l 43 87 l 0 87 l 0 260 l 0 434 l 43 434 l 87 434 l 87 477 l 87 521 l 174 521 l 260 521 l 260 564 l 260 608 l 174 608 l 87 608 l 87 694 m 521 521 l 521 608 l 477 608 l 434 608 l 434 521 l 434 434 l 477 434 l 521 434 l 521 521 m 260 260 l 260 347 l 217 347 l 174 347 l 174 260 l 174 174 l 217 174 l 260 174 l 260 260 z "},"":{"ha":694,"x_min":87,"x_max":608,"o":"m 174 738 l 174 781 l 347 781 l 521 781 l 521 694 l 521 608 l 391 608 l 260 608 l 260 391 l 260 174 l 434 174 l 608 174 l 608 87 l 608 0 l 564 0 l 521 0 l 521 -43 l 521 -87 l 477 -87 l 434 -87 l 434 -130 l 434 -174 l 304 -174 l 174 -174 l 174 -130 l 174 -87 l 260 -87 l 347 -87 l 347 -43 l 347 0 l 260 0 l 174 0 l 174 43 l 174 87 l 130 87 l 87 87 l 87 391 l 87 694 l 130 694 l 174 694 l 174 738 z "},"":{"ha":694,"x_min":87,"x_max":608,"o":"m 174 738 l 174 781 l 347 781 l 521 781 l 521 738 l 521 694 l 564 694 l 608 694 l 608 521 l 608 347 l 434 347 l 260 347 l 260 260 l 260 174 l 434 174 l 608 174 l 608 87 l 608 0 l 391 0 l 174 0 l 174 43 l 174 87 l 130 87 l 87 87 l 87 391 l 87 694 l 130 694 l 174 694 l 174 738 m 434 521 l 434 608 l 347 608 l 260 608 l 260 521 l 260 434 l 347 434 l 434 434 l 434 521 m 87 1085 l 87 1128 l 174 1128 l 260 1128 l 260 1085 l 260 1042 l 304 1042 l 347 1042 l 347 998 l 347 955 l 391 955 l 434 955 l 434 911 l 434 868 l 347 868 l 260 868 l 260 911 l 260 955 l 217 955 l 174 955 l 174 998 l 174 1042 l 130 1042 l 87 1042 l 87 1085 z "},"":{"ha":694,"x_min":87,"x_max":608,"o":"m 174 738 l 174 781 l 347 781 l 521 781 l 521 738 l 521 694 l 564 694 l 608 694 l 608 521 l 608 347 l 434 347 l 260 347 l 260 260 l 260 174 l 434 174 l 608 174 l 608 87 l 608 0 l 391 0 l 174 0 l 174 43 l 174 87 l 130 87 l 87 87 l 87 391 l 87 694 l 130 694 l 174 694 l 174 738 m 434 521 l 434 608 l 347 608 l 260 608 l 260 521 l 260 434 l 347 434 l 434 434 l 434 521 m 434 1085 l 434 1128 l 521 1128 l 608 1128 l 608 1085 l 608 1042 l 564 1042 l 521 1042 l 521 998 l 521 955 l 477 955 l 434 955 l 434 911 l 434 868 l 347 868 l 260 868 l 260 911 l 260 955 l 304 955 l 347 955 l 347 998 l 347 1042 l 391 1042 l 434 1042 l 434 1085 z "},"":{"ha":694,"x_min":87,"x_max":608,"o":"m 174 738 l 174 781 l 347 781 l 521 781 l 521 738 l 521 694 l 564 694 l 608 694 l 608 521 l 608 347 l 434 347 l 260 347 l 260 260 l 260 174 l 434 174 l 608 174 l 608 87 l 608 0 l 391 0 l 174 0 l 174 43 l 174 87 l 130 87 l 87 87 l 87 391 l 87 694 l 130 694 l 174 694 l 174 738 m 434 521 l 434 608 l 347 608 l 260 608 l 260 521 l 260 434 l 347 434 l 434 434 l 434 521 m 260 1085 l 260 1128 l 347 1128 l 434 1128 l 434 1085 l 434 1042 l 477 1042 l 521 1042 l 521 998 l 521 955 l 564 955 l 608 955 l 608 911 l 608 868 l 521 868 l 434 868 l 434 911 l 434 955 l 347 955 l 260 955 l 260 911 l 260 868 l 174 868 l 87 868 l 87 911 l 87 955 l 130 955 l 174 955 l 174 998 l 174 1042 l 217 1042 l 260 1042 l 260 1085 z "},"":{"ha":694,"x_min":87,"x_max":608,"o":"m 174 738 l 174 781 l 347 781 l 521 781 l 521 738 l 521 694 l 564 694 l 608 694 l 608 521 l 608 347 l 434 347 l 260 347 l 260 260 l 260 174 l 434 174 l 608 174 l 608 87 l 608 0 l 391 0 l 174 0 l 174 43 l 174 87 l 130 87 l 87 87 l 87 391 l 87 694 l 130 694 l 174 694 l 174 738 m 434 521 l 434 608 l 347 608 l 260 608 l 260 521 l 260 434 l 347 434 l 434 434 l 434 521 m 434 955 l 434 1042 l 521 1042 l 608 1042 l 608 955 l 608 868 l 521 868 l 434 868 l 434 955 m 87 955 l 87 1042 l 174 1042 l 260 1042 l 260 955 l 260 868 l 174 868 l 87 868 l 87 955 z "},"":{"ha":694,"x_min":87,"x_max":521,"o":"m 174 694 l 174 781 l 304 781 l 434 781 l 434 477 l 434 174 l 477 174 l 521 174 l 521 87 l 521 0 l 347 0 l 174 0 l 174 87 l 174 174 l 217 174 l 260 174 l 260 391 l 260 608 l 217 608 l 174 608 l 174 694 m 87 1085 l 87 1128 l 174 1128 l 260 1128 l 260 1085 l 260 1042 l 304 1042 l 347 1042 l 347 998 l 347 955 l 391 955 l 434 955 l 434 911 l 434 868 l 347 868 l 260 868 l 260 911 l 260 955 l 217 955 l 174 955 l 174 998 l 174 1042 l 130 1042 l 87 1042 l 87 1085 z "},"":{"ha":694,"x_min":174,"x_max":608,"o":"m 174 694 l 174 781 l 304 781 l 434 781 l 434 477 l 434 174 l 477 174 l 521 174 l 521 87 l 521 0 l 347 0 l 174 0 l 174 87 l 174 174 l 217 174 l 260 174 l 260 391 l 260 608 l 217 608 l 174 608 l 174 694 m 434 1085 l 434 1128 l 521 1128 l 608 1128 l 608 1085 l 608 1042 l 564 1042 l 521 1042 l 521 998 l 521 955 l 477 955 l 434 955 l 434 911 l 434 868 l 347 868 l 260 868 l 260 911 l 260 955 l 304 955 l 347 955 l 347 998 l 347 1042 l 391 1042 l 434 1042 l 434 1085 z "},"":{"ha":694,"x_min":87,"x_max":608,"o":"m 174 694 l 174 781 l 304 781 l 434 781 l 434 477 l 434 174 l 477 174 l 521 174 l 521 87 l 521 0 l 347 0 l 174 0 l 174 87 l 174 174 l 217 174 l 260 174 l 260 391 l 260 608 l 217 608 l 174 608 l 174 694 m 260 1085 l 260 1128 l 347 1128 l 434 1128 l 434 1085 l 434 1042 l 477 1042 l 521 1042 l 521 998 l 521 955 l 564 955 l 608 955 l 608 911 l 608 868 l 521 868 l 434 868 l 434 911 l 434 955 l 347 955 l 260 955 l 260 911 l 260 868 l 174 868 l 87 868 l 87 911 l 87 955 l 130 955 l 174 955 l 174 998 l 174 1042 l 217 1042 l 260 1042 l 260 1085 z "},"":{"ha":694,"x_min":87,"x_max":608,"o":"m 174 694 l 174 781 l 304 781 l 434 781 l 434 477 l 434 174 l 477 174 l 521 174 l 521 87 l 521 0 l 347 0 l 174 0 l 174 87 l 174 174 l 217 174 l 260 174 l 260 391 l 260 608 l 217 608 l 174 608 l 174 694 m 434 955 l 434 1042 l 521 1042 l 608 1042 l 608 955 l 608 868 l 521 868 l 434 868 l 434 955 m 87 955 l 87 1042 l 174 1042 l 260 1042 l 260 955 l 260 868 l 174 868 l 87 868 l 87 955 z "},"":{"ha":694,"x_min":87,"x_max":608,"o":"m 174 1085 l 174 1128 l 347 1128 l 521 1128 l 521 1085 l 521 1042 l 477 1042 l 434 1042 l 434 998 l 434 955 l 477 955 l 521 955 l 521 868 l 521 781 l 564 781 l 608 781 l 608 434 l 608 87 l 564 87 l 521 87 l 521 43 l 521 0 l 347 0 l 174 0 l 174 43 l 174 87 l 130 87 l 87 87 l 87 391 l 87 694 l 130 694 l 174 694 l 174 738 l 174 781 l 260 781 l 347 781 l 347 825 l 347 868 l 260 868 l 174 868 l 174 911 l 174 955 l 217 955 l 260 955 l 260 998 l 260 1042 l 217 1042 l 174 1042 l 174 1085 m 434 391 l 434 608 l 347 608 l 260 608 l 260 391 l 260 174 l 347 174 l 434 174 l 434 391 z "},"":{"ha":694,"x_min":87,"x_max":608,"o":"m 174 738 l 174 781 l 347 781 l 521 781 l 521 738 l 521 694 l 564 694 l 608 694 l 608 347 l 608 0 l 521 0 l 434 0 l 434 304 l 434 608 l 347 608 l 260 608 l 260 304 l 260 0 l 174 0 l 87 0 l 87 347 l 87 694 l 130 694 l 174 694 l 174 738 m 174 1085 l 174 1128 l 260 1128 l 347 1128 l 347 1085 l 347 1042 l 391 1042 l 434 1042 l 434 998 l 434 955 l 477 955 l 521 955 l 521 1042 l 521 1128 l 564 1128 l 608 1128 l 608 1042 l 608 955 l 564 955 l 521 955 l 521 911 l 521 868 l 434 868 l 347 868 l 347 911 l 347 955 l 260 955 l 174 955 l 174 911 l 174 868 l 130 868 l 87 868 l 87 955 l 87 1042 l 130 1042 l 174 1042 l 174 1085 z "},"":{"ha":694,"x_min":87,"x_max":608,"o":"m 174 738 l 174 781 l 347 781 l 521 781 l 521 738 l 521 694 l 564 694 l 608 694 l 608 391 l 608 87 l 564 87 l 521 87 l 521 43 l 521 0 l 347 0 l 174 0 l 174 43 l 174 87 l 130 87 l 87 87 l 87 391 l 87 694 l 130 694 l 174 694 l 174 738 m 434 391 l 434 608 l 347 608 l 260 608 l 260 391 l 260 174 l 347 174 l 434 174 l 434 391 m 87 1085 l 87 1128 l 174 1128 l 260 1128 l 260 1085 l 260 1042 l 304 1042 l 347 1042 l 347 998 l 347 955 l 391 955 l 434 955 l 434 911 l 434 868 l 347 868 l 260 868 l 260 911 l 260 955 l 217 955 l 174 955 l 174 998 l 174 1042 l 130 1042 l 87 1042 l 87 1085 z "},"":{"ha":694,"x_min":87,"x_max":608,"o":"m 174 738 l 174 781 l 347 781 l 521 781 l 521 738 l 521 694 l 564 694 l 608 694 l 608 391 l 608 87 l 564 87 l 521 87 l 521 43 l 521 0 l 347 0 l 174 0 l 174 43 l 174 87 l 130 87 l 87 87 l 87 391 l 87 694 l 130 694 l 174 694 l 174 738 m 434 391 l 434 608 l 347 608 l 260 608 l 260 391 l 260 174 l 347 174 l 434 174 l 434 391 m 434 1085 l 434 1128 l 521 1128 l 608 1128 l 608 1085 l 608 1042 l 564 1042 l 521 1042 l 521 998 l 521 955 l 477 955 l 434 955 l 434 911 l 434 868 l 347 868 l 260 868 l 260 911 l 260 955 l 304 955 l 347 955 l 347 998 l 347 1042 l 391 1042 l 434 1042 l 434 1085 z "},"":{"ha":694,"x_min":87,"x_max":608,"o":"m 174 738 l 174 781 l 347 781 l 521 781 l 521 738 l 521 694 l 564 694 l 608 694 l 608 391 l 608 87 l 564 87 l 521 87 l 521 43 l 521 0 l 347 0 l 174 0 l 174 43 l 174 87 l 130 87 l 87 87 l 87 391 l 87 694 l 130 694 l 174 694 l 174 738 m 434 391 l 434 608 l 347 608 l 260 608 l 260 391 l 260 174 l 347 174 l 434 174 l 434 391 m 260 1085 l 260 1128 l 347 1128 l 434 1128 l 434 1085 l 434 1042 l 477 1042 l 521 1042 l 521 998 l 521 955 l 564 955 l 608 955 l 608 911 l 608 868 l 521 868 l 434 868 l 434 911 l 434 955 l 347 955 l 260 955 l 260 911 l 260 868 l 174 868 l 87 868 l 87 911 l 87 955 l 130 955 l 174 955 l 174 998 l 174 1042 l 217 1042 l 260 1042 l 260 1085 z "},"":{"ha":694,"x_min":87,"x_max":608,"o":"m 174 738 l 174 781 l 347 781 l 521 781 l 521 738 l 521 694 l 564 694 l 608 694 l 608 391 l 608 87 l 564 87 l 521 87 l 521 43 l 521 0 l 347 0 l 174 0 l 174 43 l 174 87 l 130 87 l 87 87 l 87 391 l 87 694 l 130 694 l 174 694 l 174 738 m 434 391 l 434 608 l 347 608 l 260 608 l 260 391 l 260 174 l 347 174 l 434 174 l 434 391 m 174 1085 l 174 1128 l 260 1128 l 347 1128 l 347 1085 l 347 1042 l 391 1042 l 434 1042 l 434 998 l 434 955 l 477 955 l 521 955 l 521 1042 l 521 1128 l 564 1128 l 608 1128 l 608 1042 l 608 955 l 564 955 l 521 955 l 521 911 l 521 868 l 434 868 l 347 868 l 347 911 l 347 955 l 260 955 l 174 955 l 174 911 l 174 868 l 130 868 l 87 868 l 87 955 l 87 1042 l 130 1042 l 174 1042 l 174 1085 z "},"":{"ha":694,"x_min":87,"x_max":608,"o":"m 174 738 l 174 781 l 347 781 l 521 781 l 521 738 l 521 694 l 564 694 l 608 694 l 608 391 l 608 87 l 564 87 l 521 87 l 521 43 l 521 0 l 347 0 l 174 0 l 174 43 l 174 87 l 130 87 l 87 87 l 87 391 l 87 694 l 130 694 l 174 694 l 174 738 m 434 391 l 434 608 l 347 608 l 260 608 l 260 391 l 260 174 l 347 174 l 434 174 l 434 391 m 434 955 l 434 1042 l 521 1042 l 608 1042 l 608 955 l 608 868 l 521 868 l 434 868 l 434 955 m 87 955 l 87 1042 l 174 1042 l 260 1042 l 260 955 l 260 868 l 174 868 l 87 868 l 87 955 z "},"":{"ha":694,"x_min":87,"x_max":608,"o":"m 260 347 l 260 434 l 347 434 l 434 434 l 434 347 l 434 260 l 347 260 l 260 260 l 260 347 m 87 608 l 87 694 l 347 694 l 608 694 l 608 608 l 608 521 l 347 521 l 87 521 l 87 608 m 260 868 l 260 955 l 347 955 l 434 955 l 434 868 l 434 781 l 347 781 l 260 781 l 260 868 z "},"":{"ha":694,"x_min":0,"x_max":694,"o":"m 608 781 l 608 868 l 651 868 l 694 868 l 694 781 l 694 694 l 651 694 l 608 694 l 608 391 l 608 87 l 564 87 l 521 87 l 521 43 l 521 0 l 347 0 l 174 0 l 174 43 l 174 87 l 130 87 l 87 87 l 87 0 l 87 -87 l 43 -87 l 0 -87 l 0 0 l 0 87 l 43 87 l 87 87 l 87 391 l 87 694 l 130 694 l 174 694 l 174 738 l 174 781 l 347 781 l 521 781 l 521 738 l 521 694 l 564 694 l 608 694 l 608 781 m 434 564 l 434 608 l 347 608 l 260 608 l 260 521 l 260 434 l 304 434 l 347 434 l 347 477 l 347 521 l 391 521 l 434 521 l 434 564 m 434 260 l 434 347 l 391 347 l 347 347 l 347 304 l 347 260 l 304 260 l 260 260 l 260 217 l 260 174 l 347 174 l 434 174 l 434 260 z "},"":{"ha":694,"x_min":87,"x_max":608,"o":"m 87 434 l 87 781 l 174 781 l 260 781 l 260 477 l 260 174 l 347 174 l 434 174 l 434 477 l 434 781 l 521 781 l 608 781 l 608 391 l 608 0 l 391 0 l 174 0 l 174 43 l 174 87 l 130 87 l 87 87 l 87 434 m 87 1085 l 87 1128 l 174 1128 l 260 1128 l 260 1085 l 260 1042 l 304 1042 l 347 1042 l 347 998 l 347 955 l 391 955 l 434 955 l 434 911 l 434 868 l 347 868 l 260 868 l 260 911 l 260 955 l 217 955 l 174 955 l 174 998 l 174 1042 l 130 1042 l 87 1042 l 87 1085 z "},"":{"ha":694,"x_min":87,"x_max":608,"o":"m 87 434 l 87 781 l 174 781 l 260 781 l 260 477 l 260 174 l 347 174 l 434 174 l 434 477 l 434 781 l 521 781 l 608 781 l 608 391 l 608 0 l 391 0 l 174 0 l 174 43 l 174 87 l 130 87 l 87 87 l 87 434 m 434 1085 l 434 1128 l 521 1128 l 608 1128 l 608 1085 l 608 1042 l 564 1042 l 521 1042 l 521 998 l 521 955 l 477 955 l 434 955 l 434 911 l 434 868 l 347 868 l 260 868 l 260 911 l 260 955 l 304 955 l 347 955 l 347 998 l 347 1042 l 391 1042 l 434 1042 l 434 1085 z "},"":{"ha":694,"x_min":87,"x_max":608,"o":"m 87 434 l 87 781 l 174 781 l 260 781 l 260 477 l 260 174 l 347 174 l 434 174 l 434 477 l 434 781 l 521 781 l 608 781 l 608 391 l 608 0 l 391 0 l 174 0 l 174 43 l 174 87 l 130 87 l 87 87 l 87 434 m 260 1085 l 260 1128 l 347 1128 l 434 1128 l 434 1085 l 434 1042 l 477 1042 l 521 1042 l 521 998 l 521 955 l 564 955 l 608 955 l 608 911 l 608 868 l 521 868 l 434 868 l 434 911 l 434 955 l 347 955 l 260 955 l 260 911 l 260 868 l 174 868 l 87 868 l 87 911 l 87 955 l 130 955 l 174 955 l 174 998 l 174 1042 l 217 1042 l 260 1042 l 260 1085 z "},"":{"ha":694,"x_min":87,"x_max":608,"o":"m 87 434 l 87 781 l 174 781 l 260 781 l 260 477 l 260 174 l 347 174 l 434 174 l 434 477 l 434 781 l 521 781 l 608 781 l 608 391 l 608 0 l 391 0 l 174 0 l 174 43 l 174 87 l 130 87 l 87 87 l 87 434 m 434 955 l 434 1042 l 521 1042 l 608 1042 l 608 955 l 608 868 l 521 868 l 434 868 l 434 955 m 87 955 l 87 1042 l 174 1042 l 260 1042 l 260 955 l 260 868 l 174 868 l 87 868 l 87 955 z "},"":{"ha":694,"x_min":87,"x_max":608,"o":"m 87 477 l 87 781 l 174 781 l 260 781 l 260 521 l 260 260 l 347 260 l 434 260 l 434 521 l 434 781 l 521 781 l 608 781 l 608 347 l 608 -87 l 564 -87 l 521 -87 l 521 -130 l 521 -174 l 304 -174 l 87 -174 l 87 -87 l 87 0 l 260 0 l 434 0 l 434 43 l 434 87 l 304 87 l 174 87 l 174 130 l 174 174 l 130 174 l 87 174 l 87 477 m 434 1085 l 434 1128 l 521 1128 l 608 1128 l 608 1085 l 608 1042 l 564 1042 l 521 1042 l 521 998 l 521 955 l 477 955 l 434 955 l 434 911 l 434 868 l 347 868 l 260 868 l 260 911 l 260 955 l 304 955 l 347 955 l 347 998 l 347 1042 l 391 1042 l 434 1042 l 434 1085 z "},"":{"ha":694,"x_min":87,"x_max":608,"o":"m 87 434 l 87 1042 l 174 1042 l 260 1042 l 260 911 l 260 781 l 391 781 l 521 781 l 521 738 l 521 694 l 564 694 l 608 694 l 608 391 l 608 87 l 564 87 l 521 87 l 521 43 l 521 0 l 391 0 l 260 0 l 260 -87 l 260 -174 l 174 -174 l 87 -174 l 87 434 m 434 391 l 434 608 l 347 608 l 260 608 l 260 391 l 260 174 l 347 174 l 434 174 l 434 391 z "},"":{"ha":694,"x_min":87,"x_max":608,"o":"m 87 477 l 87 781 l 174 781 l 260 781 l 260 521 l 260 260 l 347 260 l 434 260 l 434 521 l 434 781 l 521 781 l 608 781 l 608 347 l 608 -87 l 564 -87 l 521 -87 l 521 -130 l 521 -174 l 304 -174 l 87 -174 l 87 -87 l 87 0 l 260 0 l 434 0 l 434 43 l 434 87 l 304 87 l 174 87 l 174 130 l 174 174 l 130 174 l 87 174 l 87 477 m 434 955 l 434 1042 l 521 1042 l 608 1042 l 608 955 l 608 868 l 521 868 l 434 868 l 434 955 m 87 955 l 87 1042 l 174 1042 l 260 1042 l 260 955 l 260 868 l 174 868 l 87 868 l 87 955 z "}}}
